<?xml version="1.0" encoding="UTF-8" standalone="no"?>
<svg
   xmlns:dc="http://purl.org/dc/elements/1.1/"
   xmlns:cc="http://creativecommons.org/ns#"
   xmlns:rdf="http://www.w3.org/1999/02/22-rdf-syntax-ns#"
   xmlns:svg="http://www.w3.org/2000/svg"
   xmlns="http://www.w3.org/2000/svg"
   xmlns:sodipodi="http://sodipodi.sourceforge.net/DTD/sodipodi-0.dtd"
   xmlns:inkscape="http://www.inkscape.org/namespaces/inkscape"
   width="959"
   height="593"
   id="svg2"
   sodipodi:version="0.32"
   inkscape:version="0.92.4 (5da689c313, 2019-01-14)"
   sodipodi:docname="Food Insecurity Map_very insecure.svg"
   inkscape:output_extension="org.inkscape.output.svg.inkscape"
   version="1.1"
   inkscape:export-filename="C:\Users\Laurel\Documents\My Documents\Personnel\Training\Visual Storytelling\Final Project\images\food insecurity map_very insecure_BF3503.png"
   inkscape:export-xdpi="96"
   inkscape:export-ydpi="96">
  <metadata
     id="metadata62">
    <rdf:RDF>
      <cc:Work
         rdf:about="">
        <dc:format>image/svg+xml</dc:format>
        <dc:type
           rdf:resource="http://purl.org/dc/dcmitype/StillImage" />
        <dc:title />
      </cc:Work>
    </rdf:RDF>
  </metadata>
  <defs
     id="defs60">
    <inkscape:perspective
       sodipodi:type="inkscape:persp3d"
       inkscape:vp_x="0 : 296.5 : 1"
       inkscape:vp_y="0 : 1000 : 0"
       inkscape:vp_z="959 : 296.5 : 1"
       inkscape:persp3d-origin="479.5 : 197.66667 : 1"
       id="perspective64" />
  </defs>
  <sodipodi:namedview
     inkscape:window-height="1137"
     inkscape:window-width="1920"
     inkscape:pageshadow="2"
     inkscape:pageopacity="0.0"
     guidetolerance="10.0"
     gridtolerance="10.0"
     objecttolerance="10.0"
     borderopacity="1.0"
     bordercolor="#666666"
     pagecolor="#ffffff"
     id="base"
     showgrid="false"
     inkscape:zoom="0.87705101"
     inkscape:cx="220.00861"
     inkscape:cy="164.10687"
     inkscape:window-x="-8"
     inkscape:window-y="-8"
     inkscape:current-layer="svg2"
     showguides="true"
     inkscape:guide-bbox="true"
     inkscape:window-maximized="1" />
  <path
     style="opacity:1;fill:#ffffff;fill-opacity:1;stroke:#000000;stroke-width:0.41571528;stroke-miterlimit:4;stroke-dasharray:none;stroke-opacity:1"
     id="HI"
     d="m 129.19739,552.43273 1.07528,-1.97135 1.2545,-0.17921 0.17921,0.44804 -1.16489,1.70252 z m 5.64522,-2.06095 3.40506,1.4337 1.16489,-0.17921 0.89606,-2.15056 -0.35842,-1.88174 -2.32978,-0.26882 -2.24017,0.98567 z m 17.02528,5.55562 2.06095,3.04662 1.3441,-0.17921 0.62725,-0.26882 0.80645,0.71685 2.06096,-0.0896 0.53765,-0.80646 -1.61292,-0.98567 -1.07528,-2.06096 -1.1649,-1.97134 -3.22584,1.61292 z m 11.20084,4.92837 0.71685,-1.07529 2.59859,0.53764 0.35843,-0.26882 3.40505,0.35843 -0.17921,0.71686 -1.43371,0.80645 -2.41937,-0.17922 z m 2.95701,2.86741 1.07529,2.15057 1.70253,-0.62726 0.17921,-0.89607 -0.89606,-1.16488 -2.06097,-0.17922 z m 3.8531,-0.62725 1.2545,-1.61292 2.59859,1.3441 2.41938,0.62725 2.41938,1.52332 v 1.07528 l -1.97134,0.98567 -2.68821,0.53764 -1.3441,-0.80646 z m 9.22949,8.60224 0.89607,-0.71685 1.88174,0.89607 4.21152,1.97135 1.88173,1.16489 0.89607,1.34409 1.07528,2.41939 2.24017,1.43371 -0.17921,0.71686 -2.15056,1.79213 -2.32977,0.80645 -0.80647,-0.35842 -1.70252,0.98567 -1.3441,1.79214 -1.2545,1.61291 -0.98568,-0.0896 -1.97134,-1.43371 -0.17921,-2.50899 0.35842,-1.34409 -0.89606,-3.13624 -1.1649,-0.98567 -0.0896,-1.43372 1.2545,-0.53763 1.16488,-1.70253 0.26882,-0.53764 -0.89606,-0.98567 z"
     inkscape:connector-curvature="0" />
  <path
     style="opacity:1;fill:#df9a81;fill-opacity:1;stroke:#ffffff;stroke-width:0.41571528;stroke-miterlimit:4;stroke-dasharray:none;stroke-opacity:1"
     id="AK"
     d="m 87.619874,516.0524 -0.179213,47.31235 0.896059,0.53764 1.702537,0.0896 0.806447,-0.62725 h 1.433714 l 0.0896,1.61293 3.853088,3.76348 0.268824,1.43371 1.881728,-1.07529 0.35844,-0.0896 0.179219,-1.70253 0.806446,-0.89606 0.627247,-0.0896 1.07528,-0.80646 1.70253,1.16488 0.35843,1.61292 1.07527,0.62725 0.62724,1.3441 2.15057,0.98568 1.88174,3.31544 1.52331,2.15056 1.2545,1.52332 0.80646,2.06094 2.77781,0.98569 2.86742,1.16488 0.53764,2.41939 0.26882,1.70252 -0.53764,1.88175 -0.98568,1.25449 -0.89607,-0.44803 -0.80646,-1.70254 -1.52332,-0.80646 -0.98566,-0.62724 -0.44804,0.44803 0.80647,1.52332 0.0896,2.06095 -0.62724,0.26882 -1.07528,-1.07528 -1.16489,-0.71685 0.26882,0.89607 0.71686,0.98567 -0.44805,0.44803 c 0,0 -0.44803,-0.17921 -0.71684,-0.53764 -0.26883,-0.35842 -1.16489,-1.88174 -1.16489,-1.88174 l -0.53764,-1.2545 c 0,0 -0.17921,0.71686 -0.53764,0.53764 -0.35843,-0.17921 -0.71686,-0.80645 -0.71686,-0.80645 l 0.98568,-1.07528 -0.80646,-0.80646 v -2.77782 h -0.44804 l -0.44802,1.88174 -0.62726,0.26884 -0.53764,-2.06097 -0.35842,-2.06095 -0.44803,-0.26882 0.17921,3.13624 v 0.62724 l -0.80647,-0.71685 -1.97134,-3.31545 -1.16489,-0.26882 -0.35842,-2.06095 -0.89607,-1.61292 -0.896068,-0.62726 v -1.25449 l 1.164898,-0.71685 -0.26883,-0.17921 -1.433708,0.35842 -1.881744,-1.34409 -1.433705,-1.61292 -2.688198,-1.43372 -2.240177,-1.4337 0.716861,-1.79213 v -0.89607 l -0.985676,0.89607 -1.61292,0.62724 -2.060955,-0.62724 -3.136243,-1.3441 h -3.046617 l -0.358427,0.26882 -3.58427,-2.15057 -1.16489,-0.17921 -1.523314,-3.22584 -1.971349,0.17921 -1.97135,0.80645 0.268823,2.509 0.627243,-1.61292 0.537648,0.17921 -0.806466,2.41939 1.792132,-1.52332 0.35843,0.89606 -2.150562,2.41939 -0.716854,-0.17921 -0.268819,-1.07529 -0.716854,-0.44803 -0.716853,0.62725 -1.523314,-0.98568 -1.702532,1.16489 -0.985666,1.16489 -1.881743,1.16489 -2.598599,-0.0896 -0.268818,-1.16488 2.060951,-0.35842 v -0.71686 l -1.254495,-0.35843 0.537646,-1.3441 1.254491,-2.15056 v -0.98567 l 0.0896,-0.44804 2.419385,-1.25449 0.537637,0.71685 h 1.523319 l -0.716854,-1.43371 -2.060961,-0.17921 -2.777803,1.52332 -1.344104,1.88173 -0.985671,1.43371 -0.627248,1.2545 -2.329774,0.80646 -1.702531,1.43371 -0.179213,0.89607 1.254494,0.53764 0.448038,1.16487 -1.523319,1.79214 -3.584264,2.32978 -4.301127,2.32977 -1.164888,0.62725 -2.95702,0.62724 -2.957025,1.2545 0.985675,0.71685 -0.806462,0.80647 -0.26882,0.62724 -1.523313,-0.53764 -1.792132,0.0896 -0.448037,1.25449 h -0.537637 l 0.179212,-1.3441 -1.971349,0.71686 -1.61292,0.53764 -1.881742,-0.71686 -1.612921,1.07527 h -1.792133 l -1.164888,0.71686 -0.896067,0.44804 -1.164887,-0.17921 -1.433708,-0.62725 -1.254494,0.35842 -0.53764,0.53764 -0.896068,-0.62723 v -1.07529 l 1.702529,-0.71685 3.494662,0.35843 2.419381,-0.89607 1.164887,-1.16489 1.61292,-0.35843 0.985675,-0.44804 1.523315,0.0896 0.896066,0.71686 0.537638,-0.17921 1.254494,-1.52331 1.702532,-0.53765 1.881737,-0.35843 0.716856,-0.17921 0.358426,0.26882 h 0.448037 l 0.716851,-2.06095 2.240169,-0.80646 1.075282,-2.06095 1.254494,-2.509 0.896069,-0.80646 0.179213,-1.43371 -0.896069,0.71685 -1.881745,0.35844 -0.358425,-1.3441 -0.71685,-0.17921 -0.537644,0.53764 -0.0896,1.61292 -0.806463,-0.0896 -0.806457,-3.22584 -0.716856,0.71685 -0.627245,-0.26881 -0.179212,-1.07528 -2.240169,0.0896 -1.164887,0.62726 -1.433707,-0.17922 0.806457,-0.80646 0.268818,-1.43371 -0.358425,-1.07529 0.806463,-0.53763 0.71685,-0.0896 -0.358425,-0.98567 v -2.41939 l -0.537638,-0.53764 -0.448037,0.80647 h -3.405053 l -0.806461,-0.71686 -0.358427,-2.15055 -1.164888,-1.97136 v -0.53764 l 1.164888,-0.44804 0.08961,-1.16488 0.627247,-0.62725 -0.448033,-0.26881 -0.716855,0.26881 -0.627246,-1.52331 0.537639,-2.77781 2.50899,-1.79214 1.433704,-0.89606 1.075282,-2.06095 1.523318,-0.71686 1.433707,0.62725 0.179213,1.34411 1.344099,-0.17922 1.792133,-1.34411 0.896069,0.35843 0.537637,0.35843 h 0.896069 l 1.254495,-0.71686 0.448037,-2.41938 c 0,0 0.179213,-1.61291 0.537638,-1.88174 0.358426,-0.26882 0.537638,-0.53764 0.537638,-0.53764 l -0.627244,-1.07528 -1.433707,0.44804 -1.792138,0.44802 -1.075281,-0.26881 -1.971346,-0.98568 -2.777806,-0.0896 -1.97135,-2.06096 0.268819,-2.15056 0.35843,-1.3441 -1.164887,-0.98567 -1.075282,-2.06096 0.268819,-0.44803 3.763482,-0.26881 h 1.164887 l 0.537638,0.53763 h 0.358431 l -0.0896,-0.89607 2.150558,-0.35842 1.433706,0.17921 0.806463,0.62725 -0.806463,1.16489 -0.268818,0.80645 1.523318,0.89607 2.777808,0.98568 0.985675,-0.53764 -1.254494,-2.41938 -0.537644,-1.79214 0.537644,-0.44803 -1.881744,-1.07528 -0.268819,-0.62726 0.268819,-0.89605 -0.448032,-2.15057 -1.612925,-2.59859 -1.3441,-2.32977 1.612925,-1.07529 h 1.792132 l 0.985675,0.35843 2.329776,-0.0896 2.060952,-1.97135 0.627249,-1.70252 2.060958,-1.34411 0.896062,0.53764 1.523313,-0.35842 2.060956,-1.16489 0.627253,-0.0896 0.537637,0.44805 2.508985,-0.0896 1.523315,-1.70252 h 0.627247 l 1.97135,1.34409 1.075278,1.16489 -0.268819,0.62725 0.358424,0.62725 0.896072,-0.89607 2.150562,0.17922 0.179212,2.06094 1.075284,0.80647 3.942694,0.35842 3.494662,2.32978 0.806455,-0.53764 2.867424,1.43371 1.164882,-0.35843 1.075287,-0.44804 2.68819,1.07528 z m -63.799991,16.03961 1.164888,2.95702 -0.0896,0.53764 -1.612921,-0.17922 -0.985674,-2.24016 -0.985673,-0.80646 h -1.344102 l -0.0896,-1.43371 0.985673,-1.3441 0.627248,1.3441 0.806459,0.80646 z m -1.433708,18.54858 2.060956,0.44804 2.060953,0.53764 0.448035,0.53765 -0.896068,2.06094 -1.702527,-0.0896 -1.881741,-1.97134 z m -11.469659,-7.79577 0.627247,1.4337 0.627247,0.89607 -0.627247,0.44802 -1.164887,-1.70251 v -1.07528 z m -7.6165712,40.50223 1.881741,-1.2545 1.881741,-0.53764 1.433708,0.17922 0.2688197,0.89606 1.0752811,0.26883 1.0752804,-1.07528 -0.179214,-0.89606 1.523315,-0.35844 1.612921,1.43372 -0.627248,0.98566 -2.41938,0.62725 -1.5233158,-0.26882 -2.0609536,-0.62724 -2.4193817,0.80645 -0.8960671,0.17921 z m 27.1508362,-2.50899 0.896067,1.07528 1.164886,-0.89607 -0.806459,-0.71686 z m 1.612921,1.70253 0.627244,-1.25449 1.164888,0.17921 -0.448032,1.07528 z m 13.082579,-1.07528 0.806462,0.98567 0.537644,-0.62724 -0.448038,-1.07528 z m 4.838766,-6.89972 0.627249,3.22584 1.61292,0.44804 2.777806,-1.61293 2.419381,-1.4337 -0.89606,-1.3441 0.268818,-1.3441 -1.164889,0.71685 -1.612919,-0.44804 0.896063,-0.62723 1.07528,0.44802 2.150561,-0.98567 0.268824,-0.80646 -1.344101,-0.44803 0.448029,-1.07528 -1.523313,1.07528 -2.598593,1.97135 -2.6882,1.61292 z m 23.476961,-11.02163 1.344101,-0.80645 -0.537641,-0.98569 -0.985673,0.53765 z"
     inkscape:connector-curvature="0" />
  <path
     style="opacity:1;fill:#df9a81;fill-opacity:1;stroke:#ffffff;stroke-width:0.41571528;stroke-miterlimit:4;stroke-dasharray:none;stroke-opacity:1"
     id="FL"
     d="m 421.15656,507.99737 1.25582,4.05661 2.06733,5.40002 2.95701,5.19716 2.06094,3.49464 2.68819,3.04662 2.24016,2.06095 0.89606,1.61291 -0.62725,0.71685 -0.44802,0.71685 1.6129,4.12189 1.61292,1.61291 1.4337,2.95701 1.97134,3.22583 2.50897,4.56991 0.71685,4.21151 0.26882,6.63087 0.35842,0.98566 -0.1792,1.88173 -1.3441,0.71685 0.17921,1.07527 -0.35842,1.07528 0.17921,1.3441 0.26882,1.07527 -1.52331,1.79214 -1.70251,0.80645 -2.15055,0.0896 -0.80646,0.89607 -1.34409,0.53764 -0.71686,-0.26883 -0.62724,-0.53763 -0.17921,-1.61292 -0.44804,-1.88172 -1.88173,-2.86741 -1.97133,-1.25449 -2.15055,-0.1792 -0.44804,0.71684 -1.70251,-2.41937 -0.35843,-1.97133 -1.4337,-2.24017 -0.98567,-0.62724 -0.89607,1.16488 -0.98567,-0.17921 -1.16488,-2.7778 -1.61292,-2.15055 -1.61291,-2.95701 -1.43369,-1.70251 -1.97134,-2.06095 1.16487,-1.34409 1.79213,-3.04661 -0.0896,-0.89607 -2.50896,-0.53763 -0.89607,0.35842 0.17921,0.35842 1.4337,0.53764 -0.80646,2.50898 -0.44802,0.26881 -0.98568,-2.24015 -0.71685,-2.68819 -0.17921,-1.52331 0.80646,-2.59858 v -5.28678 l -1.70253,-2.06094 -0.71684,-1.70252 -2.86741,-0.71685 -1.07527,-0.35842 -0.89606,-1.4337 -1.88173,-0.89607 -0.62725,-1.88174 -1.52331,-0.53763 -1.34409,-2.06094 -2.32977,-0.80646 -1.61291,-0.80646 h -1.43369 l -2.24018,0.44804 -0.0896,1.07527 0.44803,0.53763 -0.26882,0.62726 -1.70252,-0.0896 -2.06094,1.97134 -1.97135,1.07527 h -2.15055 l -1.79212,0.71685 -0.17921,-1.5233 -0.89606,-1.07528 -1.61292,-0.62725 -0.89606,-0.80645 -4.48033,-2.15055 -4.21148,-0.98567 -2.41937,0.35842 -3.31544,0.26882 -3.31544,1.16488 -1.92849,0.33976 -0.13188,-4.46187 -1.4337,-1.07527 -0.98566,-0.98568 0.1792,-1.70253 5.6452,-0.71684 14.15782,-1.61292 3.76347,-0.35843 3.01311,0.15536 1.43371,2.15055 0.80644,0.80646 4.48871,0.28558 5.99725,-0.35843 11.92404,-0.71685 3.01849,-0.37379 2.83106,0.11336 0.23659,1.61291 1.23772,0.44803 0.13023,-2.56635 -0.84707,-2.31301 0.72523,-0.79809 3.07886,0.25207 z m 6.95376,73.39043 1.34409,-0.35842 0.71686,-0.13441 0.80646,-1.2993 1.2993,-0.89606 0.71685,0.26882 0.94086,0.17921 0.22402,0.58243 -1.92653,0.67205 -2.32977,0.80647 -1.2993,0.67205 z m 7.48215,-2.77781 0.67205,0.58245 1.52332,-1.16487 2.95701,-2.32978 2.06095,-2.15056 1.38891,-3.67387 0.53764,-0.94088 0.0896,-1.88173 -0.40324,0.26881 -0.53764,1.56813 -0.80647,2.55377 -1.79213,2.91223 -2.41937,2.32977 -1.88174,1.07528 z"
     sodipodi:nodetypes="cccccccccccccccccccccccccccccccccccccccccccccccccccccccccccccccccccccccccccccccccccccccccccccccccccccccccccccccccccccccccccccccccccccccccccccc"
     inkscape:connector-curvature="0" />
  <path
     style="opacity:1;fill:#efcdc0;fill-opacity:1;stroke:#ffffff;stroke-width:0.41571528;stroke-miterlimit:4;stroke-dasharray:none;stroke-opacity:1"
     id="NH"
     d="m 488.2155,343.53041 0.48167,-0.59669 0.60429,-1.82416 -1.4096,-0.50633 -0.26883,-1.70252 -2.15055,-0.62725 -0.1792,-1.52331 -4.0323,-12.99295 -2.55051,-8.06099 -0.49723,-0.003 -0.35843,0.89607 -0.35842,-0.26882 -0.53764,-0.53764 -0.80646,1.07528 -0.0269,2.78921 0.17274,3.14126 1.07527,1.52331 v 2.24016 l -2.06096,2.80624 -1.4337,0.62725 v 0.62725 l 0.62726,0.98566 v 4.74915 l -0.44804,5.10757 -0.0896,2.68819 0.53765,0.71686 -0.0896,2.50898 -0.26882,0.98568 0.53701,0.39311 9.30519,-2.45248 1.20549,-0.33392 1.02186,-1.53722 z"
     sodipodi:nodetypes="ccccccccccccccccccccccccccccccccc"
     inkscape:connector-curvature="0" />
  <path
     d="m 116.95457,537.84973 v 30.48579 l 19.95433,24.94292 M 0,500.15821 h 79.817338 l 37.137232,37.69152 h 47.66868 l 29.37722,29.9315 v 25.49721"
     id="path57"
     style="fill:none;fill-opacity:1;stroke:#a9a9a9;stroke-width:1.10857403"
     inkscape:connector-curvature="0" />
  <g
     id="MI"
     style="opacity:1;fill:#cf6842;fill-opacity:1;stroke:#ffffff;stroke-width:0.75;stroke-miterlimit:4;stroke-dasharray:none;stroke-opacity:1"
     transform="matrix(0.55428705,0,0,0.55428705,0,264.58622)">
    <path
       sodipodi:nodetypes="cccccccccccsccccccccccccccccccccccccccccccccccccccccccccccccccccccccccccccccccccccccccccccccccccc"
       d="m 697.86007,177.23689 -3.23321,-8.24469 -2.26325,-9.05298 -2.4249,-3.23321 -2.58657,-1.77827 -1.6166,1.13163 -3.87986,1.77826 -1.93992,5.01148 -2.74823,3.71819 -1.13162,0.64664 -1.45495,-0.64664 c 0,0 -2.58656,-1.45495 -2.4249,-2.10159 0.16166,-0.64664 0.48498,-5.01147 0.48498,-5.01147 l 3.39487,-1.29329 0.8083,-3.39487 0.64664,-2.58656 2.42491,-1.61661 -0.32332,-10.02295 -1.61661,-2.26324 -1.29328,-0.80831 -0.8083,-2.10158 0.8083,-0.8083 1.6166,0.32332 0.16166,-1.61661 -2.4249,-2.26325 -1.29329,-2.58656 h -2.58656 l -4.5265,-1.45495 -5.49645,-3.39487 h -2.74823 l -0.64664,0.64665 -0.96997,-0.48499 -3.07154,-2.26324 -2.90989,1.77826 -2.90989,2.26325 0.32332,3.55653 0.96996,0.32332 2.10159,0.48498 0.48498,0.8083 -2.58657,0.80831 -2.58656,0.32332 -1.45495,1.77826 -0.32332,2.10159 0.32332,1.6166 0.32332,5.49646 -3.55653,2.10159 -0.64664,-0.16167 v -4.20317 l 1.29328,-2.4249 0.64665,-2.42491 -0.80831,-0.8083 -1.93992,0.8083 -0.96997,4.20317 -2.74822,1.13162 -1.77827,1.93993 -0.16166,0.96996 0.64664,0.8083 -0.64664,2.58657 -2.26325,0.48498 v 1.13163 l 0.80831,2.4249 -1.13163,6.1431 -1.6166,4.04151 0.64664,4.68816 0.48498,1.13162 -0.8083,2.42491 -0.32332,0.8083 -0.32332,2.74823 3.55653,5.98143 2.90989,6.46642 1.45494,4.84982 -0.8083,4.68815 -0.96996,5.98144 -2.42491,5.17313 -0.32332,2.74823 -3.25887,3.08515 4.40861,-0.16205 21.41849,-2.26325 7.27784,-0.98706 0.0964,1.66635 6.85194,-1.21246 10.29808,-1.50313 3.8542,-0.46091 0.13805,-0.58755 0.16166,-1.45494 2.10158,-3.71819 2.00056,-1.73785 -0.22229,-5.05189 1.59699,-1.59699 1.09062,-0.34294 0.22228,-3.55653 1.53577,-3.03112 1.05079,0.60622 0.16166,0.64664 0.80831,0.16166 1.93992,-0.96996 z"
       id="MI-"
       style="fill:#cf6842;fill-opacity:1;stroke:#ffffff;stroke-width:0.75;stroke-miterlimit:4;stroke-dasharray:none;stroke-opacity:1"
       inkscape:connector-curvature="0" />
    <path
       sodipodi:nodetypes="ccccccccccccccsccccccccccccccccccccccccccccccccccccccccccccccccccccccccccccccccccccccccccccccccccccccccccccccc"
       inkscape:label="#SP-"
       style="fill:#cf6842;fill-opacity:1;stroke:#ffffff;stroke-width:0.75;stroke-miterlimit:4;stroke-dasharray:none;stroke-opacity:1"
       id="SP-"
       d="m 581.61931,82.059006 1.82899,-2.057604 2.17192,-0.800181 5.37264,-3.886597 2.28622,-0.571559 0.45726,0.457254 -5.14402,5.14402 -3.31504,1.943289 -2.05761,0.914496 z m 86.17438,32.128184 0.64664,2.50574 3.23322,0.16166 1.29329,-1.21246 c 0,0 -0.0808,-1.45494 -0.40415,-1.61661 -0.32333,-0.16166 -1.61661,-1.8591 -1.61661,-1.8591 l -2.18242,0.24249 -1.61662,0.16166 -0.32332,1.13163 z m -100.3016,-2.97401 0.71628,-0.5804 2.74823,-0.80831 3.55653,-2.26324 v -0.96997 l 0.64665,-0.64664 5.98143,-0.96996 2.42491,-1.93993 4.36483,-2.10158 0.16166,-1.293286 1.93993,-2.909889 1.77826,-0.808302 1.29329,-1.778265 2.26324,-2.263247 4.36484,-2.424907 4.68815,-0.484981 1.13162,1.131623 -0.32332,0.969963 -3.71819,0.969963 -1.45494,3.071549 -2.26325,0.808302 -0.48498,2.424907 -2.42491,3.23321 -0.32332,2.58657 0.8083,0.48498 0.96997,-1.13162 3.55653,-2.90989 1.29328,1.29328 h 2.26325 l 3.23321,0.96996 1.45494,1.13163 1.45494,3.07155 2.74823,2.74822 3.87985,-0.16166 1.45495,-0.96996 1.6166,1.29328 1.61661,0.48499 1.29328,-0.80831 h 1.13162 l 1.61661,-0.96996 4.04151,-3.55653 3.39487,-1.13162 6.62808,-0.32332 4.52649,-1.93993 2.58657,-1.29328 1.45495,0.16166 v 5.65811 l 0.48498,0.32332 2.90988,0.80831 1.93993,-0.48499 6.1431,-1.6166 1.13162,-1.13162 1.45495,0.48498 v 6.9514 l 3.23321,3.07155 1.29328,0.64664 1.29328,0.96996 -1.29328,0.32332 -0.8083,-0.32332 -3.71819,-0.48498 -2.10159,0.64664 -2.26325,-0.16166 -3.23321,1.45495 h -1.77826 l -5.81978,-1.29329 -5.17313,0.16166 -1.93993,2.58657 -6.9514,0.64664 -2.42491,0.8083 -1.13162,3.07155 -1.29328,1.13163 -0.48498,-0.16166 -1.45495,-1.61661 -4.52649,2.42491 h -0.64664 l -1.13163,-1.61661 -0.8083,0.16166 -1.93992,4.36484 -0.96997,4.04151 -3.18112,7.0008 -1.17676,-1.03427 -1.37174,-1.03132 -1.94078,-10.28802 -3.54448,-1.37005 -2.05258,-2.28623 -12.12036,-2.74348 -2.85527,-1.02964 -8.23042,-2.17274 -7.88999,-1.14312 z"
       inkscape:connector-curvature="0" />
  </g>
  <path
     style="opacity:1;fill:#df9a81;fill-opacity:1;stroke:#ffffff;stroke-width:0.41571528;stroke-miterlimit:4;stroke-dasharray:none;stroke-opacity:1"
     id="VT"
     d="m 468.08663,349.97852 0.17555,-2.96301 -1.60229,-5.97753 -0.35842,-0.17922 -1.61293,-0.71685 0.44805,-1.61291 -0.44805,-1.16489 -1.49659,-2.57188 0.53764,-2.15055 -0.44803,-2.86741 -1.3441,-3.58426 -0.44652,-2.72849 14.64391,-3.73137 0.17111,3.06089 1.06216,1.51999 v 2.24016 l -2.05483,2.80358 -1.4337,0.63337 -0.006,0.62112 0.72609,0.84202 -0.17234,4.4886 -0.3378,5.13207 -0.12635,3.08013 0.53764,0.71686 -0.0896,2.53348 -0.26882,0.93669 0.56214,0.40305 -4.12253,0.83515 z"
     sodipodi:nodetypes="ccccccccccccccccccccccccccccc"
     inkscape:connector-curvature="0" />
  <path
     style="opacity:1;fill:#bf3503;fill-opacity:1;stroke:#ffffff;stroke-width:0.41571528;stroke-miterlimit:4;stroke-dasharray:none;stroke-opacity:1"
     id="ME"
     d="m 511.51813,308.28107 1.07528,1.16488 1.25449,2.06094 v 1.07528 l -1.16489,2.59857 -1.07527,0.35843 -1.88173,1.70253 -2.68819,3.0466 c 0,0 -0.35842,0 -0.71685,0 -0.35842,0 -0.53764,-1.16488 -0.53764,-1.16488 l -0.98567,0.0896 -0.53764,0.80645 -1.34409,0.80647 -0.53763,0.80645 0.89606,0.80645 -0.26882,0.35844 -0.26882,1.52329 -1.07527,-0.0896 v -0.89606 l -0.17922,-0.71685 -0.80646,0.17922 -0.98568,-1.79213 -1.16487,0.71685 0.71685,0.80645 0.17921,0.62725 -0.44803,0.71685 0.17921,1.70251 0.0896,0.89606 -0.89606,1.43371 -1.61291,0.26882 -0.17921,1.61291 -2.95702,1.70253 -0.71685,0.26881 -0.89606,-0.80645 -1.70252,1.97134 0.53764,1.79212 -0.80647,0.71686 -0.0896,2.41936 -0.62262,3.46948 -1.36479,-0.64073 -0.26883,-1.70252 -2.15055,-0.62725 -0.17921,-1.52331 -4.0323,-12.99294 -2.60436,-8.11462 0.78739,-0.0656 0.83907,0.22721 v -1.4337 l 0.72517,-2.49233 1.43371,-2.59858 0.80646,-2.24016 -1.07528,-1.34409 v -3.31544 l 0.44803,-0.53764 0.44804,-1.52331 -0.0896,-0.80645 -0.0896,-2.68819 0.98567,-2.68819 1.61292,-4.92835 1.16487,-2.32976 h 0.71686 l 0.71685,0.0896 v 0.62723 l 0.71685,1.2545 1.5233,0.35842 0.44804,-0.44803 v -0.53764 l 2.24016,-1.61291 0.98566,-0.98567 0.80646,0.0896 3.31543,1.34408 1.07528,0.53764 5.01795,16.57717 h 3.31544 l 0.44803,1.07528 0.0896,2.68819 1.61291,1.25449 h 0.44803 l 0.0896,-0.26882 -0.26883,-0.62725 z m -11.60221,16.71038 0.85128,-0.85126 0.76165,0.58244 0.31363,1.3441 -0.94087,0.49283 z m 3.71869,-3.27064 0.98567,1.03047 c 0,0 0.71685,0.0448 0.71685,-0.13441 0,-0.17921 0.1344,-1.12008 0.1344,-1.12008 l 0.49285,-0.44803 -0.44804,-0.98569 -1.12009,0.40324 z"
     sodipodi:nodetypes="ccccccccsccccccccccccccccccccccccccccccccccccccccccccccccccccccccccccccccccccccccccccccccsccccc"
     inkscape:connector-curvature="0" />
  <path
     style="opacity:1;fill:#df9a81;fill-opacity:1;stroke:#ffffff;stroke-width:0.41571528;stroke-miterlimit:4;stroke-dasharray:none;stroke-opacity:1"
     id="RI"
     d="m 484.48569,363.74559 -2.04853,-8.2899 3.47498,-1.02274 1.21452,1.06818 1.83275,2.39487 1.48986,2.44003 -1.6625,0.9006 -0.71685,-0.0896 -0.62725,0.98567 -1.34408,1.07527 z"
     sodipodi:nodetypes="ccccccccccc"
     inkscape:connector-curvature="0" />
  <path
     style="opacity:1;fill:#df9a81;fill-opacity:1;stroke:#ffffff;stroke-width:0.41571528;stroke-miterlimit:4;stroke-dasharray:none;stroke-opacity:1"
     id="NY"
     d="m 460.26858,369.20546 -0.62726,-0.53764 -1.4337,-0.0896 -1.25449,-1.07528 -0.90382,-3.39729 -1.91698,0.0502 -1.35452,-1.50111 -10.74504,2.42884 -23.83532,4.83875 -4.17358,0.68066 -0.40916,-3.58531 0.79158,-0.62379 0.71684,-0.62723 0.53765,-0.89607 0.98566,-0.62725 1.07527,-0.98567 0.26883,-0.89606 1.16487,-1.52331 0.62726,-0.53764 -0.0896,-0.53764 -0.71685,-1.70251 -0.98566,-0.0896 -1.07528,-3.40505 1.61291,-0.98567 2.41937,-0.80645 2.24017,-0.71686 1.79212,-0.26881 3.49463,-0.0896 1.07529,0.71685 0.89607,0.0896 1.16488,-0.71685 1.43369,-0.62725 2.86741,-0.26881 1.16488,-0.98568 0.98567,-1.79212 0.89606,-1.07528 h 1.16488 l 1.07528,-0.62725 0.0896,-1.25448 -0.80645,-1.16488 -0.17922,-0.80646 0.62724,-1.16488 v -0.80646 h -0.98566 l -0.98568,-0.44802 -0.44802,-0.62726 -0.0896,-1.4337 3.22582,-3.04661 0.35843,-0.44802 0.80647,-1.61292 1.61291,-2.50898 1.5233,-2.06094 1.16489,-1.34409 1.33866,-1.01192 1.70795,-0.69061 3.04661,-0.71685 1.79213,0.0896 2.50898,-0.80645 4.19329,-1.14802 0.28811,2.76017 1.3441,3.58426 0.44803,2.86741 -0.53763,2.15055 1.43369,2.50898 0.44804,1.16489 -0.44804,1.61292 1.61292,0.71685 0.35843,0.17921 1.70252,6.09325 -0.29725,2.8045 -0.26881,6.00363 0.44802,3.04663 0.44803,1.97134 0.80646,4.0323 v 4.48032 l -0.62724,1.25449 1.01951,1.10458 0.44151,0.93033 -1.07527,0.98566 0.17922,0.71686 0.71685,-0.17922 0.80645,-0.71684 1.25448,-1.43371 0.62726,-0.35842 0.89606,0.35842 1.25449,0.0896 4.39071,-2.15056 1.61292,-1.5233 0.71684,-0.80646 2.32976,0.89606 -1.88174,1.97134 -2.15055,1.61292 -3.94267,2.957 -1.4337,0.53765 -3.22583,1.07527 -2.24015,0.62725 -0.65115,-0.2954 -0.13526,-2.0445 0.26882,-1.52332 -0.0896,-1.16488 -1.55951,-0.94173 -2.50897,-0.53764 -2.15056,-0.62724 z"
     inkscape:connector-curvature="0" />
  <path
     style="opacity:1;fill:#df9a81;fill-opacity:1;stroke:#ffffff;stroke-width:0.41571528;stroke-miterlimit:4;stroke-dasharray:none;stroke-opacity:1"
     id="PA"
     d="m 457.35538,389.1301 0.72524,-0.15021 1.29123,-0.69465 0.67172,-1.37634 0.89607,-1.25449 1.79214,-1.70253 v -0.44802 l -1.34411,-0.89606 -1.97133,-1.34411 -0.53764,-1.43371 -1.52332,-0.17921 -0.0896,-0.62724 -0.44803,-1.52331 1.25449,-0.62724 0.0896,-1.3441 -0.71686,-0.71686 0.0896,-0.89606 1.07529,-1.70252 v -1.70253 l 1.49526,-1.46657 -0.5101,-0.37413 -1.39907,-0.10693 -1.2718,-1.07527 -0.8591,-3.39006 -1.94255,0.0557 -1.3609,-1.49842 -10.02759,2.32676 -23.83533,4.83876 -4.92837,0.80645 -0.34403,-3.61472 -2.97238,2.80893 -0.71685,0.26882 -2.32927,1.66779 1.61338,10.60764 1.37556,5.39286 1.97981,10.67639 1.81213,-0.35345 6.62017,-0.83281 21.02224,-4.24871 8.24569,-1.56494 4.60078,-0.89924 0.14805,-0.13222 1.1649,-0.89607 z"
     sodipodi:nodetypes="cccccccccccccccccccccccccccccccccccccccccccc"
     inkscape:connector-curvature="0" />
  <path
     style="opacity:1;fill:#df9a81;fill-opacity:1;stroke:#ffffff;stroke-width:0.41571528;stroke-miterlimit:4;stroke-dasharray:none;stroke-opacity:1"
     id="NJ"
     d="m 459.88056,369.04724 -1.28735,1.51557 v 1.70253 l -1.07529,1.70252 -0.0896,0.89606 0.71685,0.71686 -0.0896,1.3441 -1.2545,0.62724 0.44803,1.52331 0.0896,0.62724 1.52332,0.17922 0.53763,1.4337 1.97134,1.34411 1.3441,0.89606 v 0.44803 l -1.65355,1.49466 -0.89607,1.25449 -0.80645,1.52332 -1.25449,0.71685 -0.25633,0.88824 -0.13442,0.67204 -0.33769,1.44488 0.60544,1.24393 1.79212,1.61291 2.68819,1.25449 2.24016,0.35843 0.0896,0.80645 -0.44802,0.53764 0.17921,1.5233 h 0.44803 l 1.16489,-1.34408 0.44803,-2.6882 1.52331,-2.24016 1.70251,-3.58425 0.62725,-3.04661 -0.35842,-0.62724 -0.0896,-5.19718 -0.89607,-1.88172 -0.62723,0.44802 -1.52332,0.17922 -0.26881,-0.26882 0.62725,-0.53763 1.16488,-1.07528 0.035,-0.6063 -0.21306,-1.90333 0.31781,-1.52332 -0.0652,-1.09139 -1.55618,-0.9702 -2.8225,-0.65171 -2.29332,-0.76582 z"
     sodipodi:nodetypes="ccccccccccccccccccccccccccccccccccccccccccccccccccc"
     inkscape:connector-curvature="0" />
  <path
     style="opacity:1;fill:#efcdc0;fill-opacity:1;stroke:#ffffff;stroke-width:0.41571528;stroke-linecap:butt;stroke-miterlimit:4;stroke-dasharray:none;stroke-opacity:1"
     id="DE"
     d="m 457.63385,391.11836 0.20416,-1.18999 0.2079,-0.93733 -0.89961,0.22048 -0.89544,0.25916 -1.2229,0.97793 0.95344,2.7952 1.2545,3.13622 1.16488,5.37639 0.89607,3.49466 2.7778,-0.0896 3.4045,-0.65444 -1.25504,-4.09412 -0.53764,0.26882 -1.97134,-1.34409 -0.98567,-2.59858 -1.07527,-1.97134 -1.74441,-1.59098 -0.47899,-1.16296 z"
     sodipodi:nodetypes="cccccccccccccccccccc"
     inkscape:connector-curvature="0" />
  <path
     style="opacity:1;fill:#efcdc0;fill-opacity:1;stroke:#ffffff;stroke-width:0.41571528;stroke-miterlimit:4;stroke-dasharray:none;stroke-opacity:1"
     id="MD"
     d="m 472.13714,403.38787 -3.33046,0.66727 -2.85064,0.0652 -1.02186,-3.83696 -1.06691,-5.08243 -1.42596,-3.43017 -0.71414,-2.43794 -4.16048,0.89925 -8.2457,1.56493 -20.75884,4.18537 0.62706,2.77789 0.53764,3.13623 0.17921,-0.17922 1.1649,-1.3441 1.25448,-1.45092 1.34409,-0.34121 0.80647,-0.80645 0.98566,-1.4337 0.71685,0.35843 1.61292,-0.17922 1.4337,-1.16489 1.1124,-0.80552 1.02278,-0.26882 0.91145,0.62632 1.61291,0.80645 1.07527,0.98568 0.67206,0.85125 2.28496,0.94087 v 1.61291 l 3.04662,0.71686 0.63435,0.30041 0.78259,-1.12426 1.59744,1.09202 -0.70847,1.3757 -0.42418,2.2092 -0.98566,1.43371 v 1.16488 l 0.35841,0.98567 2.80689,0.75144 2.38959,-0.0342 1.70251,0.53764 1.16488,0.17922 0.53764,-1.16489 -0.80645,-1.16488 v -0.98567 l -1.3441,-1.16489 -1.16488,-3.0466 0.71686,-2.95701 -0.0896,-1.16488 -0.71684,-0.71686 c 0,0 0.80646,-0.89606 0.80646,-1.25449 0,-0.35842 0.26881,-1.16487 0.26881,-1.16487 l 1.07528,-0.71685 1.07527,-0.89606 0.26882,0.53764 -0.80645,0.89605 -0.71686,2.06095 0.17922,0.62724 0.98567,0.17922 0.26881,3.04661 -1.16488,0.53763 0.17922,1.97134 0.26882,-0.0896 0.62724,-1.07527 0.89607,0.98568 -0.89607,0.71685 -0.17921,1.88172 1.4337,1.88174 2.15055,0.26882 0.89606,-0.44803 1.79398,2.31855 0.75292,0.29726 3.68804,-1.55031 1.11278,-2.23039 z m -8.85173,5.0045 0.62723,1.3889 0.0896,0.98569 0.62725,1.03046 c 0,0 0.49284,-0.49283 0.49284,-0.67205 0,-0.17921 -0.40323,-1.70252 -0.40323,-1.70252 l -0.40323,-1.2993 z"
     sodipodi:nodetypes="ccccccccccccccccccccccccccccccccccccccccccccccccccsccccccccccccccccccccccccccccsccc"
     inkscape:connector-curvature="0" />
  <path
     style="opacity:1;fill:#efcdc0;fill-opacity:1;stroke:#ffffff;stroke-width:0.41571528;stroke-miterlimit:4;stroke-dasharray:none;stroke-opacity:1"
     id="VA"
     d="m 460.96665,412.06477 -0.0798,-1.07922 3.57705,-1.41335 -0.42702,1.7836 -1.61849,2.09471 -0.23176,2.54186 0.25595,1.87928 -1.01322,2.75933 -1.19963,1.06209 -0.81499,-2.57235 0.24716,-3.02036 0.87965,-2.31862 z m 1.85142,15.68708 -32.2452,6.97039 -20.74528,2.92613 -3.70171,-0.20797 -1.43297,1.06777 -4.06799,0.12233 -4.64608,0.54191 -6.05003,0.89496 5.80307,-3.1102 -0.007,-1.15011 0.84254,-1.18958 5.84982,-6.37509 2.18762,2.48179 2.09687,0.53433 1.40981,-0.63207 1.24006,-0.72676 1.40601,0.7447 2.16958,-0.79139 1.04024,-2.52552 1.44166,0.29932 1.58263,-1.18131 0.9973,0.27358 1.56708,-2.03787 0.19304,-1.15464 -0.53414,-0.70702 0.55582,-1.03466 2.92346,-6.80506 0.34187,-3.17888 0.68115,-0.2902 1.20754,1.35405 2.18158,-0.16693 1.06935,-4.19796 1.54866,-0.31089 0.58186,-1.51934 1.42997,-1.30083 1.53639,-3.15678 0.0471,-2.80888 5.44393,2.11894 c 0.37739,0.18869 0.46166,-2.79867 0.46166,-2.79867 l 2.02457,0.88593 0.0379,1.62859 3.20612,0.72028 1.18226,0.65196 0.92009,1.13943 -0.36282,2.02242 -1.07943,1.43615 0.0609,1.14131 0.32645,1.02705 2.75965,0.70307 2.46729,0.0221 1.70101,0.53137 1.07726,0.17144 0.39621,1.71189 1.76842,0.22313 0.48116,0.66515 -0.24359,2.59965 0.76199,0.61112 -0.26549,1.06999 0.68145,0.43776 -0.12293,0.76747 -1.49325,-0.0526 0.0493,0.89545 1.26432,0.8552 0.0673,0.7826 0.98281,0.98961 0.27259,1.39909 -1.41511,0.76564 0.87145,0.82827 3.21543,-0.93443 z"
     sodipodi:nodetypes="ccccccccccccccccccccccccccccccccccccccccccccccccccccccccccccccccccccccccccccccccccc"
     inkscape:connector-curvature="0" />
  <path
     style="opacity:1;fill:#cf6842;fill-opacity:1;stroke:#ffffff;stroke-width:0.41571528;stroke-miterlimit:4;stroke-dasharray:none;stroke-opacity:1"
     id="WV"
     d="m 421.91528,397.0427 0.61637,2.74069 0.60053,3.34309 1.1808,-1.43025 1.25448,-1.70253 1.40699,-0.34119 0.80646,-0.80645 0.98567,-1.43371 0.80094,0.35843 1.61291,-0.17921 1.4337,-1.16489 1.1124,-0.80552 1.02279,-0.26882 0.72274,0.56341 2.01941,1.00971 1.07528,0.98566 0.76165,0.71685 -0.42221,3.07904 -3.23422,-1.40857 -2.35308,-0.89906 -0.056,2.87033 -1.52299,3.06894 -1.40236,1.34507 -0.66077,1.52395 -1.4653,0.2772 -0.49765,1.99647 -0.57826,2.18925 -2.19954,0.18887 -1.28801,-1.35183 -0.59373,0.31007 -0.35068,3.03178 -0.74846,1.95912 -2.74836,6.0722 0.49702,0.64336 -0.11412,1.05788 -1.55681,2.15312 -1.00243,-0.30169 -1.64514,1.19711 -1.40921,-0.31717 -1.10816,2.5251 c 0,0 -1.80658,0.79275 -2.17441,0.75811 -0.0889,-0.009 -1.36859,-0.69236 -1.36859,-0.69236 l -1.29511,0.76456 -1.33571,0.5789 -2.07564,-0.49283 -0.62158,-0.64757 -1.21511,-1.67579 -1.7419,-1.10199 -0.9487,-2.00832 -2.37505,-1.92237 -0.35843,-1.2545 -1.43371,-0.80646 -0.44804,-0.89605 -0.1344,-2.91222 1.20968,-0.0448 1.07529,-0.44803 0.0896,-1.52331 0.89606,-0.80646 0.0896,-2.7778 0.53763,-2.15056 0.71686,-0.35843 0.71685,0.62725 0.26882,0.98567 0.98567,-0.53764 0.26883,-0.89606 -0.62725,-0.98567 v -1.3441 l 0.53763,-0.71685 1.25449,-1.88173 0.71685,-0.80646 1.16489,0.26882 1.25449,-0.89606 1.70251,-1.88174 1.2545,-2.15056 0.17922,-3.13621 0.26882,-2.77781 v -2.59858 l -0.62725,-1.70253 0.53763,-0.80646 0.71143,-0.71685 1.93515,10.98992 2.56691,-0.41635 z"
     sodipodi:nodetypes="ccccccccccccccccccccccccccccccccccccccccscccccccccccccccccccccccccccccccccccccccccc"
     inkscape:connector-curvature="0" />
  <path
     style="opacity:1;fill:#cf6842;fill-opacity:1;stroke:#ffffff;stroke-width:0.41571528;stroke-miterlimit:4;stroke-dasharray:none;stroke-opacity:1"
     id="OH"
     d="m 407.58111,371.74559 -3.37757,2.24672 -2.15055,1.2545 -1.88173,2.06095 -2.24016,2.15055 -1.79213,0.44802 -1.61291,0.26882 -3.04662,1.43371 -1.16487,0.0896 -1.88174,-1.70252 -2.86741,0.35844 -1.43369,-0.80647 -1.31979,-0.74875 -2.7119,0.38989 -5.6452,0.89607 -6.21182,1.21096 0.71685,8.10938 0.98567,7.61656 1.4337,12.99292 0.31363,2.67786 2.28496,-0.0715 1.34409,-0.44804 1.86452,0.83317 1.14765,2.41937 2.84845,-0.01 1.04856,1.17437 0.9762,-0.0362 1.40699,-0.74354 1.38803,0.20591 3.00495,0.26755 0.95723,-1.18212 1.30017,-0.71684 1.14764,-0.3774 0.35843,1.52332 0.98568,0.53764 1.92652,1.29928 1.20969,-0.0448 0.73894,-0.27298 0.10238,-1.53068 0.87874,-0.80646 0.0549,-2.65654 c 0,0 0.56756,-2.2776 0.56756,-2.2776 l 0.72018,-0.33329 0.73241,0.63618 0.29828,0.94064 0.9529,-0.57504 0.24331,-0.80967 -0.61896,-1.05483 0.0367,-1.28287 0.41516,-0.59437 1.19325,-1.83273 0.58213,-0.85546 1.16487,0.26882 1.2545,-0.89606 1.70252,-1.88174 1.5362,-2.26078 0.17755,-2.8022 0.26882,-2.77781 -0.098,-2.94153 -0.52927,-1.60454 0.19469,-0.65948 1.00015,-0.97006 -1.26864,-5.01483 z"
     sodipodi:nodetypes="cccccccccccccccccccccccccccccccccccccccccccccccccccccccccccccccc"
     inkscape:connector-curvature="0" />
  <path
     style="opacity:1;fill:#cf6842;fill-opacity:1;stroke:#ffffff;stroke-width:0.41571528;stroke-miterlimit:4;stroke-dasharray:none;stroke-opacity:1"
     id="IN"
     d="m 343.41938,430.85642 0.0362,-1.58446 0.26883,-2.50898 1.25449,-1.61291 0.98568,-2.15056 1.43369,-2.32977 -0.26882,-3.22584 -0.98567,-1.52331 -0.1792,-1.79212 0.44803,-3.04662 -0.26883,-3.85308 -0.71685,-8.87103 -0.71686,-8.51262 -0.53791,-6.49625 1.70224,0.49304 0.80647,0.53764 0.62724,-0.17921 1.16489,-1.07527 1.56839,-0.89628 2.82287,-0.0898 12.18649,-1.25449 3.09054,-0.29553 0.83318,8.84432 2.35647,20.4208 0.33172,3.19912 -0.20592,1.25449 0.68065,0.99515 0.0535,0.76079 -1.39752,0.88659 -1.96186,0.85987 -1.7749,0.30501 -0.33172,2.69768 -2.53569,1.83605 -1.55002,2.22294 0.17921,1.3174 -0.32222,0.85038 h -1.84383 l -0.87884,-0.89607 -1.382,0.69962 -1.48713,0.83318 0.0896,1.69304 -0.66169,0.14303 -0.25934,-0.56435 -1.20107,-0.83317 -1.80161,0.74357 -0.85988,1.66632 -0.79697,-0.44803 -0.80646,-0.88658 -2.47453,0.26882 -3.10003,0.53764 z"
     inkscape:connector-curvature="0" />
  <path
     style="opacity:1;fill:#efcdc0;fill-opacity:1;stroke:#ffffff;stroke-width:0.41571528;stroke-miterlimit:4;stroke-dasharray:none;stroke-opacity:1"
     id="IL"
     d="m 343.4038,431.06214 0.0173,-1.79019 0.31451,-2.57519 1.29289,-1.61622 1.03466,-2.25914 1.23773,-2.21457 -0.20592,-2.91133 -1.11146,-1.96361 -0.0535,-1.85501 0.38514,-2.92082 -0.45751,-3.97889 -0.59106,-8.74524 -0.71686,-8.32391 -0.5112,-6.45145 -0.15105,-0.51073 -0.44803,-1.43369 -0.71685,-2.06095 -0.89607,-0.98567 -0.80645,-1.4337 -0.12946,-3.04245 -25.38437,1.44017 0.12672,1.31474 1.26723,0.38017 0.50688,0.63361 0.25345,1.01379 2.15428,1.90083 0.38017,1.26723 -0.38017,1.90084 -1.01379,2.02756 -0.38016,1.39394 -1.26722,1.01378 -1.01378,0.38017 -2.91462,0.76034 -0.38017,1.01377 -0.38016,1.14052 0.38016,0.76033 1.01379,0.88706 -0.12673,2.281 -1.01379,0.88706 -0.38016,0.88706 v 1.52067 l -1.01378,0.25345 -0.88706,0.6336 -0.12671,0.76035 0.12671,1.1405 -0.95042,0.72865 -0.57024,1.55236 0.25344,2.02755 1.26722,4.05512 4.05512,4.18185 3.04134,2.02756 -0.12672,2.40774 0.50689,0.76033 3.54824,0.25344 1.52067,0.76034 -0.38016,2.02756 -1.26723,3.29478 -0.38017,1.77412 1.26722,2.15429 3.54824,2.91461 2.53445,0.38017 1.14049,2.7879 1.14052,1.77411 -0.5069,1.64739 0.88706,2.28101 1.01379,1.1405 0.78377,-0.48815 0.5031,-1.15003 1.22668,-0.96845 1.18145,-0.34055 1.44255,0.65394 2.01039,0.76253 0.65902,-0.1653 0.11078,-1.25183 -0.71352,-1.33682 0.16862,-1.31738 1.019,-0.74687 1.67535,-0.44914 0.6989,-0.25415 -0.33955,-0.76873 -0.43865,-1.305 0.79407,-0.54373 z"
     sodipodi:nodetypes="ccccccccccccccccccccccccccccccccccccccccccccccccccccccccccccccccccccccccccccccccccc"
     inkscape:connector-curvature="0" />
  <path
     style="opacity:1;fill:#cf6842;fill-opacity:1;stroke:#ffffff;stroke-width:0.41571528;stroke-miterlimit:4;stroke-dasharray:none;stroke-opacity:1"
     id="CT"
     d="m 484.48475,363.7276 -2.03836,-8.24714 -2.61558,0.51012 -11.76684,2.62903 0.5544,1.78795 0.80645,4.03229 0.098,4.97025 -0.67624,1.20551 1.06467,1.07106 2.36766,-2.16484 1.97134,-1.79213 1.07527,-1.16489 0.44803,0.35843 1.52331,-0.80645 2.8674,-0.62725 z"
     sodipodi:nodetypes="cccccccccccccccc"
     inkscape:connector-curvature="0" />
  <path
     style="opacity:1;fill:#df9a81;fill-opacity:1;stroke:#ffffff;stroke-width:0.41571528;stroke-miterlimit:4;stroke-dasharray:none;stroke-opacity:1"
     id="WI"
     d="m 340.92306,373.9851 -0.037,-1.75012 -0.65356,-2.50897 -0.35843,-3.40504 -0.62724,-1.34409 0.53764,-1.70252 0.44803,-1.61292 0.80646,-1.43369 -0.35843,-1.88173 -0.35842,-1.97134 0.26881,-0.98568 1.07528,-1.34409 0.0896,-1.52331 -0.44804,-0.71685 0.35843,-1.4337 -0.25082,-2.31177 1.5233,-3.13622 1.61291,-3.76347 0.0896,-1.25449 -0.17922,-0.53763 -0.44804,0.26882 -2.32976,3.49464 -1.5233,2.24016 -1.07527,0.98566 -0.44804,1.25449 -1.0836,0.44804 -0.62724,1.07527 -0.80647,-0.1792 -0.0896,-0.98568 0.71685,-1.34409 1.16487,-2.59859 0.98568,-0.89606 0.5492,-1.30692 -1.41922,-1.05389 -1.09463,-5.74629 -1.9663,-0.74384 -1.07879,-1.27948 -6.72335,-1.50857 -1.59406,-0.56096 -4.55243,-1.20131 -4.3888,-0.64227 -2.08698,-2.84387 -0.41594,0.30708 -0.66398,-0.0896 -0.35844,-0.62724 -0.73942,0.16437 -0.62724,0.0896 -0.98568,0.53764 -0.53764,-0.35843 0.35843,-1.07527 1.07528,-1.70253 0.62725,-0.62724 -1.07528,-0.80645 -1.16489,0.44803 -1.61291,1.07528 -4.12189,1.79212 -1.61291,0.35843 -1.61292,-0.26883 -0.54416,-0.4868 -1.17325,1.57151 -0.12672,1.52067 v 4.68872 l -0.63362,0.88707 -2.91462,2.15427 -1.26723,3.2948 0.25345,0.12672 1.39394,1.1405 0.38018,1.77412 -1.01379,1.77411 v 2.15429 l 0.25345,3.67495 1.6474,1.6474 h 1.90084 l 1.01378,1.77411 1.90083,0.25344 2.15429,3.16807 3.9284,2.28101 1.14049,1.52067 0.5069,4.11849 0.38016,1.83747 1.26723,0.88705 0.12672,0.76034 -1.14049,1.90084 0.12671,1.77412 1.39395,2.15428 1.39395,0.63361 1.64739,0.25344 0.74404,0.76498 z"
     sodipodi:nodetypes="ccccccccccccccccccccccccccccccccccccccccccccccccccccccccccccccccccccccccccccccccccccccccc"
     inkscape:connector-curvature="0" />
  <path
     style="opacity:1;fill:#cf6842;fill-opacity:1;stroke:#ffffff;stroke-width:0.41571528;stroke-miterlimit:4;stroke-dasharray:none;stroke-opacity:1"
     id="NC"
     d="m 462.81945,427.7215 1.15569,2.72563 1.97134,3.58426 1.34409,1.34409 0.35842,1.25448 -1.34409,0.0896 0.44804,0.35842 -0.17922,2.32976 -1.4337,0.71685 -0.35842,1.16489 -0.71685,1.61292 -2.06096,0.89605 -1.34408,-0.17921 -0.80647,-0.0896 -0.89605,-0.71685 0.17921,0.71685 v 0.53764 h 1.07527 l 0.44804,0.71685 -1.07528,3.49465 h 2.32977 l 0.35842,0.89606 1.25449,-1.25448 0.71685,-0.26883 -1.07528,1.97134 -1.70253,2.68819 h -0.71684 l -0.62725,-0.26881 -1.5233,0.35842 -2.8674,1.34409 -3.58426,2.95701 -1.88174,2.59858 -1.07527,3.58425 -0.26881,1.3441 -2.59859,0.26882 -3.0226,0.74089 -5.51317,-4.54655 -6.9893,-4.21151 -1.61291,-0.44803 -6.9893,0.80645 -2.37039,0.41581 -0.89605,-1.79213 -1.64644,-1.17327 -9.13985,0.26883 -4.0323,0.44802 -5.01796,2.50898 -3.40505,1.4337 -11.73843,1.43371 0.27719,-2.24726 0.98567,-0.80646 1.52332,-0.35842 0.35842,-2.06095 2.32977,-1.52331 2.15055,-0.80646 2.32977,-1.97133 2.41937,-1.1649 0.35843,-1.70251 2.15056,-2.15055 0.35842,-0.0896 c 0,0 0,0.62726 0.44803,0.62726 0.44804,0 1.07528,0.17921 1.07528,0.17921 l 1.25449,-1.97135 1.16489,-0.35843 1.25448,0.17922 0.89607,-1.97135 1.61291,-1.4337 0.26882,-1.16489 0.10393,-2.02214 2.3704,-0.0125 3.99009,-0.47434 8.73403,-1.2485 8.38971,-1.15656 11.99504,-2.61587 11.0765,-2.36048 6.19522,-1.3335 z m 2.36707,18.40598 1.4337,-1.38891 1.74732,-1.43371 0.85127,-0.35842 0.0896,-1.12008 -0.35843,-3.40505 -0.80646,-1.29929 -0.35843,-1.03048 0.40324,-0.13442 1.52332,3.04663 0.22401,2.46419 -0.0896,1.88173 -1.88174,0.85126 -1.56811,1.34411 -0.62724,0.67204 z"
     sodipodi:nodetypes="cccccccccccccccccccccccccccccccccccccccccccccccccccccccccccscccccccccccccccccccccccccccccccc"
     inkscape:connector-curvature="0" />
  <path
     style="fill:#ff6e40;fill-opacity:1;stroke:#ffffff;stroke-width:0.41571528;stroke-miterlimit:4;stroke-dasharray:none;stroke-opacity:1"
     id="DC"
     d="m 446.65529,403.6257 -1.03002,-1.01111 -0.68323,-0.3804 0.79984,-1.12102 1.60139,1.08002 z"
     sodipodi:nodetypes="cccccc"
     inkscape:connector-curvature="0" />
  <path
     style="opacity:1;fill:#df9a81;fill-opacity:1;stroke:#ffffff;stroke-width:0.41571528;stroke-miterlimit:4;stroke-dasharray:none;stroke-opacity:1"
     id="MA"
     d="m 498.64965,360.61863 1.20387,-0.38018 0.25345,-0.95042 0.57026,0.0634 0.57024,1.26724 -0.69697,0.25343 -2.1543,0.0634 z m -5.19563,0.44353 1.26723,-1.45731 h 0.88706 l 1.01378,0.82369 -1.33059,0.57025 -1.20386,0.57025 z m -19.2887,-12.18777 9.78142,-2.57227 1.25449,-0.35842 1.06095,-1.54963 2.07126,-0.92196 1.60146,2.44599 -1.34409,2.8674 -0.17921,0.80646 1.07527,1.43371 0.62724,-0.44804 h 0.98568 l 1.25449,1.4337 2.15055,3.31544 1.97133,0.26881 1.25449,-0.53764 0.98567,-0.98567 -0.44803,-1.5233 -1.16489,-0.89607 -0.80645,0.44804 -0.53764,-0.71685 0.26882,-0.26883 1.16489,-0.0896 0.98566,0.44802 1.07527,1.3441 0.53764,1.61292 0.17921,1.34408 -2.32976,0.80647 -2.15055,1.07527 -2.15055,2.50897 -1.07528,0.80646 v -0.53764 l 1.3441,-0.80645 0.26882,-0.98568 -0.44803,-1.70251 -1.61291,0.80645 -0.44804,0.80646 0.26882,1.25449 -1.14534,0.55452 -1.52273,-2.50932 -1.88174,-2.41938 -1.14766,-1.00463 -3.6213,1.03995 -2.82262,0.58244 -11.45996,2.5454 -0.37014,-2.64275 0.35843,-5.86922 2.37749,-0.49283 z"
     sodipodi:nodetypes="ccccccccccccccccccccccccccccccccccccccccccccccccccccccccccccccc"
     inkscape:connector-curvature="0" />
  <path
     style="opacity:1;fill:#cf6842;fill-opacity:1;stroke:#ffffff;stroke-width:0.41571528;stroke-miterlimit:4;stroke-dasharray:none;stroke-opacity:1"
     id="TN"
     d="m 386.15953,440.99035 -28.76366,2.7778 -8.73533,0.98567 -2.56147,0.28418 -2.14418,-0.0153 -0.12247,2.27304 -4.53706,0.14634 -3.85308,0.35842 -4.48464,-0.0686 -0.78364,3.9204 -0.9402,3.03752 -1.82536,1.52476 -0.74759,2.42836 -0.17921,1.4337 -2.24016,1.25448 0.80646,1.97135 -0.53764,2.41937 -0.53676,0.43769 59.95088,-5.76876 0.22353,-2.19217 1.00366,-0.82611 1.57093,-0.41541 0.37244,-2.06027 2.2718,-1.49933 2.24317,-0.82812 2.26347,-1.97899 2.45888,-1.12268 0.28892,-1.7002 2.25295,-2.20882 0.30531,-0.0633 c 0,0 0.0173,0.62724 0.46534,0.62724 0.44804,0 1.07528,0.19653 1.07528,0.19653 l 1.2545,-1.98866 1.14756,-0.35842 1.26106,0.16362 0.88592,-1.95821 1.63806,-1.46549 0.23373,-1.07482 0.17125,-2.05705 -1.1898,-0.11073 -1.44207,1.12429 -3.87631,0.0161 -10.17631,1.32298 z"
     sodipodi:nodetypes="ccccccccccccccccccccccccccccccsccccccccccccc"
     inkscape:connector-curvature="0" />
  <path
     style="fill:#bf3503;fill-opacity:1;stroke:#ffffff;stroke-width:0.41571528;stroke-miterlimit:4;stroke-dasharray:none;stroke-opacity:1"
     id="AR"
     d="m 329.14938,454.73603 -2.20599,0.39726 -2.8336,-0.35144 0.23319,-0.888 1.65163,-1.42269 0.5229,-2.02661 -1.01377,-1.6474 -43.46585,1.39395 0.88706,3.80169 -1e-5,4.56201 0.76035,6.08274 0.12672,20.97252 1.26723,1.07714 1.64738,-0.76033 1.52068,0.63361 0.3771,3.64349 30.83015,-0.63222 0.63501,-1.15867 -0.15887,-1.96744 -1.01193,-1.64739 0.88614,-0.82323 -0.88614,-1.3921 0.37925,-1.39117 0.75848,-3.10701 1.3958,-1.14328 -0.38016,-1.26632 2.02755,-2.97751 1.52068,-0.75848 -0.0629,-0.82787 -0.19147,-1.01192 1.58357,-3.10332 1.33197,-0.69651 0.21292,-1.89989 0.98146,-0.68825 -1.74242,-0.26843 -0.74355,-2.22293 1.55428,-1.31738 0.30499,-1.11922 0.70919,-2.24298 z"
     sodipodi:nodetypes="cccccccccccccccccccccccccccccccccccccccc"
     inkscape:connector-curvature="0" />
  <path
     style="opacity:1;fill:#cf6842;fill-opacity:1;stroke:#ffffff;stroke-width:0.41571528;stroke-miterlimit:4;stroke-dasharray:none;stroke-opacity:1"
     id="MO"
     d="m 309.53618,402.11213 -1.39672,-1.71123 -0.63363,-1.26723 -35.67237,1.33059 -1.26725,0.0634 0.69698,1.39395 -0.12672,1.26723 1.39394,2.15428 1.71075,2.28101 1.71076,1.52066 1.19794,0.12673 0.82962,0.5069 v 1.64739 l -1.01378,0.88705 -0.25345,1.26723 1.1405,1.90085 1.39396,1.64738 1.39395,1.01378 0.76032,6.46285 0.17414,19.99436 0.12672,2.59781 0.25344,2.984 12.43432,-0.48046 12.8628,-0.38017 11.53175,-0.44399 6.46007,-0.12765 1.20247,1.89898 -0.37924,1.83331 -1.71122,1.33197 -0.31727,1.01842 2.98122,0.25345 2.15894,-0.38018 0.95181,-3.04504 0.36107,-3.24634 1.16291,-1.41629 1.43894,-0.82417 0.0286,-1.6907 0.56317,-1.07338 -0.9391,-1.40997 -0.73771,0.54556 -1.1045,-1.23454 -0.71227,-2.63784 0.44399,-1.39581 -1.0776,-1.8999 -1.01471,-2.53631 -2.66024,-0.44307 -3.86272,-3.10331 -0.95274,-2.28008 0.44307,-1.77411 1.14143,-3.3577 0.25436,-1.58727 -1.08037,-0.57164 -3.79983,-0.44214 -0.5698,-0.94903 -0.062,-2.34484 -3.04133,-1.90176 -3.86644,-4.30763 -1.26722,-4.05513 -0.12764,-2.34204 z"
     sodipodi:nodetypes="cccccccccccccccccccccccccccccccccccccccccccccccccccccccccccc"
     inkscape:connector-curvature="0" />
  <path
     style="opacity:1;fill:#df9a81;fill-opacity:1;stroke:#ffffff;stroke-width:0.41571528;stroke-miterlimit:4;stroke-dasharray:none;stroke-opacity:1"
     id="GA"
     d="m 372.64291,461.66397 v 1.2097 l 0.0896,1.16488 0.35843,1.88173 1.88174,4.39072 1.34409,5.46599 0.80646,3.40505 0.89606,2.68818 0.80646,3.85309 1.16489,3.49464 1.4337,1.88174 0.26882,1.88173 1.07528,0.44804 0.0896,1.16488 -0.98566,2.68819 -0.26882,1.79213 -0.0896,1.07527 0.89607,2.41938 0.17921,2.95701 -0.44804,1.3441 0.35843,0.44803 0.80646,0.44804 0.11347,1.78374 1.23772,1.8566 1.24739,1.1984 4.39072,0.0896 5.99725,-0.35842 11.92404,-0.71685 3.01849,-0.37381 2.53711,0.0154 0.0896,1.61292 1.43371,0.44804 0.17921,-2.41938 -0.89606,-2.50899 0.62724,-0.89605 3.22582,0.44803 2.75892,0.17614 -0.4298,-3.49133 1.25449,-5.5556 0.80645,-2.32976 -0.26882,-1.4337 1.84822,-3.46114 -0.28285,-0.74921 -1.06059,0.39053 -1.4337,-0.71686 -0.35842,-1.16488 -0.71685,-1.97134 -1.2545,-1.16488 -1.43369,-0.35843 -0.89607,-2.68819 -1.62129,-3.51141 -2.32976,-1.07528 -1.16489,-1.07528 -0.71686,-1.4337 -1.16488,-1.07528 -1.25449,-0.71685 -1.25449,-1.61292 -1.70251,-1.25448 -2.50899,-0.98567 -0.26883,-0.80646 -1.34409,-1.61291 -0.26882,-0.80646 -1.88173,-2.75507 -1.95102,0.0549 -2.08131,-1.30598 -0.78612,-0.71685 -0.17922,-0.98566 0.48267,-1.07528 1.23421,-0.61533 -0.35139,-1.16246 z"
     sodipodi:nodetypes="ccccccccccccccccccccccccccccccccccccccccccccccccccccccccccccccccccccccc"
     inkscape:connector-curvature="0" />
  <path
     style="opacity:1;fill:#df9a81;fill-opacity:1;stroke:#ffffff;stroke-width:0.41571528;stroke-miterlimit:4;stroke-dasharray:none;stroke-opacity:1"
     id="SC"
     d="m 423.99816,490.82672 -0.98501,0.53738 -1.4337,-0.71685 -0.35843,-1.16489 -0.71684,-1.97134 -1.2545,-1.16488 -1.4337,-0.35842 -0.89607,-2.68819 -1.5233,-3.31545 -2.32976,-1.07528 -1.1649,-1.07528 -0.71685,-1.43369 -1.16488,-1.07529 -1.25449,-0.71684 -1.25448,-1.61292 -1.70253,-1.25449 -2.50898,-0.98567 -0.26882,-0.80646 -1.34409,-1.61291 -0.26882,-0.80647 -1.88174,-2.8674 -1.88174,0.0896 -2.24016,-1.3441 -0.71685,-0.71686 -0.17921,-0.98566 0.44803,-1.07527 1.25448,-0.53765 -0.28313,-1.26881 3.19718,-1.29513 5.0526,-2.54363 4.30943,-0.44803 8.93202,-0.23417 1.46234,1.04063 0.9307,1.86142 2.38474,-0.3381 6.9893,-0.80648 1.61291,0.44805 6.98931,4.2115 5.60278,4.50174 -3.00488,3.0255 -1.43371,3.40504 -0.26882,3.49464 -0.89606,0.44803 -0.62724,1.5233 -1.3441,0.35843 -1.16489,1.97134 -1.5233,1.52331 -1.25449,1.88174 -0.89606,0.44802 -1.97134,1.88173 -1.61291,0.0896 0.53764,1.79212 -2.77781,3.04662 z"
     sodipodi:nodetypes="cccccccccccccccccccccccccccccccccccccccccccccccccccccc"
     inkscape:connector-curvature="0" />
  <path
     style="opacity:1;fill:#bf3503;fill-opacity:1;stroke:#ffffff;stroke-width:0.41571528;stroke-miterlimit:4;stroke-dasharray:none;stroke-opacity:1"
     id="KY"
     d="m 402.4093,428.25094 -1.27117,1.33122 -1.98334,2.21385 -2.72961,3.02899 -0.67389,0.95103 -0.0346,1.16488 -2.4277,1.19953 -3.13622,1.88174 -4.00853,0.99708 -28.7497,2.71537 -8.73532,0.98567 -2.56148,0.28418 -2.14417,-0.0153 -0.12579,2.33924 -4.53374,0.0802 -3.85309,0.35842 -4.42735,-0.0334 0.66946,-0.7317 1.38546,-0.85408 0.12673,-1.77411 0.50689,-1.01379 -0.89064,-1.40728 0.44444,-1.05691 1.2545,-0.98568 1.16488,-0.35842 1.52331,0.71685 1.97134,0.71685 0.62725,-0.17921 0.0896,-1.25449 -0.71685,-1.34409 0.17921,-1.25449 1.07528,-0.80646 1.43371,-0.35843 0.89606,-0.35843 -0.44803,-0.98567 -0.35842,-1.07528 0.83509,-0.55195 c 0.002,-0.0206 0.69506,-1.95237 0.68637,-2.02748 l 1.69237,-0.81962 2.94868,-0.53763 2.49099,-0.26882 0.77181,0.90206 0.8471,0.48267 0.88174,-1.72284 1.76656,-0.71094 1.22225,0.82259 0.22757,0.55375 0.65047,-0.14634 -0.0896,-1.63676 1.7354,-0.96956 1.19066,-0.59502 0.84771,0.92057 1.83919,-0.0246 0.32556,-0.87093 -0.20371,-1.25448 1.44144,-2.21632 2.64759,-1.90558 0.39129,-2.68045 1.6213,-0.25271 2.10156,-0.91218 1.3543,-0.94685 -0.10994,-0.86742 -0.63323,-0.80646 0.31362,-1.66004 2.31961,-0.0652 1.27481,-0.41339 1.85542,0.79213 1.13856,2.41938 2.84476,0.006 1.13686,1.22397 0.89541,-0.0818 1.44209,-0.70847 2.90284,0.31781 1.42723,0.12056 0.93541,-1.13974 1.45109,-0.79035 1.04305,-0.39194 0.35843,1.57231 1.13264,0.58663 1.46485,1.15429 0.0652,3.1446 0.44802,0.87157 1.43546,0.86262 0.4277,1.27182 2.30577,1.90506 1.00067,2.00831 z"
     sodipodi:nodetypes="ccccccccccccccccccccccccccccccccccccccccccccccccccccccccccccccccccccccccccccccccccccccc"
     inkscape:connector-curvature="0" />
  <path
     style="opacity:1;fill:#bf3503;fill-opacity:1;stroke:#ffffff;stroke-width:0.41571528;stroke-miterlimit:4;stroke-dasharray:none;stroke-opacity:1"
     id="AL"
     d="m 349.925,519.78868 -0.82622,-7.93821 -1.52331,-10.39435 0.0896,-7.79577 0.44804,-17.20443 -0.0896,-9.22946 0.0915,-3.55801 24.65718,-2.00621 -0.0819,1.20968 0.0896,1.1649 0.35842,1.88172 1.88174,4.39072 1.3441,5.466 0.80645,3.40505 0.89607,2.68819 0.80647,3.85307 1.16488,3.49465 1.43369,1.88174 0.26882,1.88173 1.07529,0.44803 0.0896,1.16489 -0.98567,2.68819 -0.26882,1.79214 -0.0896,1.07527 0.89606,2.41937 0.17922,2.95701 -0.44804,1.3441 0.35843,0.44804 0.80646,0.44803 0.18188,1.60123 -3.10271,-0.19597 -3.76347,0.35842 -14.15783,1.61292 -5.77099,0.77975 -0.12271,1.59491 0.98567,0.98566 1.43371,1.07528 0.32196,4.39851 -3.07189,1.42613 -1.5233,-0.17922 1.5233,-1.07527 v -0.53764 l -1.70251,-3.31543 -1.2545,-0.35842 -0.80645,2.41936 -0.71686,1.52331 -0.35841,-0.0896 z"
     sodipodi:nodetypes="cccccccccccccccccccccccccccccccccccccccccccccccc"
     inkscape:connector-curvature="0" />
  <path
     style="fill:#bf3503;fill-opacity:1;stroke:#ffffff;stroke-width:0.41571528;stroke-miterlimit:4;stroke-dasharray:none;stroke-opacity:1"
     id="LA"
     d="m 336.98827,519.09335 -1.82062,-1.75495 0.55979,-3.0487 -0.36658,-0.49504 -5.13364,0.55793 -13.87286,0.25437 -0.37924,-1.32733 0.50595,-4.68689 1.83796,-3.29571 2.78882,-4.81732 -0.3182,-1.32919 0.69651,-0.37738 0.25438,-1.08224 -1.26723,-1.13958 -0.062,-1.07667 -1.01473,-2.40867 -0.0815,-3.5134 -30.7484,0.51214 0.0158,5.3065 0.38016,5.19564 0.38017,2.15428 1.39395,2.28101 0.50689,2.7879 2.40773,3.04133 0.12672,1.77412 0.38017,0.38017 -0.38017,4.68874 -1.64739,2.7879 0.88706,1.1405 -0.38017,1.39394 -0.38016,4.05513 -0.76035,1.77411 0.0679,2.00454 2.59766,-0.84259 6.71427,0.11475 5.7348,1.97133 3.58425,0.62725 2.06095,-0.80646 1.79213,0.62725 1.79212,0.53763 0.44803,-1.16488 -1.79213,-0.62725 -1.4337,0.26883 -1.5233,-0.89606 c 0,0 0.0896,-0.71686 0.44803,-0.80646 0.35842,-0.0896 1.70252,-0.53764 1.70252,-0.53764 l 0.98566,0.80646 0.98568,-0.53765 1.79213,0.35843 0.80645,1.34409 0.17921,1.2545 2.50897,0.17921 0.98568,0.98567 -0.44803,0.89607 -0.71686,0.44802 0.89606,0.89606 4.65953,1.97134 1.97134,-0.71685 0.53764,-1.34409 1.43369,-0.35842 0.98568,-0.80646 0.71685,0.53763 0.44803,1.61292 -1.25449,0.44803 0.35842,0.35843 1.88174,-0.71686 1.2545,-1.88173 0.44803,-0.26882 -1.16489,-0.1792 0.44804,-0.89607 -0.0896,-0.80646 1.16489,-0.26882 0.62724,-0.71685 0.35842,0.44802 c 0,0 -0.0896,1.70253 0.35844,1.70253 0.44803,0 2.32976,0.35843 2.32976,0.35843 l 2.24016,1.07528 0.53764,0.80645 h 1.61291 l 0.62724,0.53764 1.25449,-1.70252 v -0.80646 h -0.71686 l -1.88172,-1.5233 -3.22583,-0.44805 -1.79213,-1.25448 0.62725,-1.52331 1.25448,0.17922 0.0896,-0.35843 -0.98568,-0.53764 v -0.26882 h 1.79213 l 0.98567,-1.70251 -0.71685,-1.07528 -0.17921,-1.52331 -0.80647,0.0896 -1.07527,1.1649 -0.35842,1.43369 -1.70252,-0.35842 -0.53764,-0.98568 0.98566,-1.07528 1.055,-1.90984 -0.58815,-1.3371 z"
     sodipodi:nodetypes="ccccccccccccccccccccccccccccccccccccccccccccscccccccccccccccccccccccccccccsccccccccccccccccccccccccccccc"
     inkscape:connector-curvature="0" />
  <path
     style="fill:#bf3503;fill-opacity:1;stroke:#ffffff;stroke-width:0.41571528;stroke-miterlimit:4;stroke-dasharray:none;stroke-opacity:1"
     id="MS"
     d="m 350.06488,519.19497 -0.14093,0.69627 h -2.86742 l -0.80644,-0.44803 -1.16489,-0.17922 -3.76346,1.07527 -0.98568,-0.44802 -1.43369,2.32976 -0.61113,0.43124 -0.62292,-1.37906 -0.63362,-2.15428 -1.90083,-1.77411 0.6336,-3.07328 -0.38016,-0.50688 -1.01378,0.12672 -4.38879,0.48409 -13.60582,0.20696 -0.42665,-1.23348 0.48409,-4.64316 1.72763,-3.14436 2.8973,-5.0689 -0.24708,-1.34837 0.68558,-0.36374 0.2416,-1.06395 -1.28455,-1.15234 -0.0638,-1.187 -1.01752,-2.28426 -0.0604,-3.30509 0.73583,-1.37516 -0.12377,-1.89331 -0.98081,-1.70864 0.84608,-0.82158 -0.87057,-1.38546 0.25344,-0.9158 0.87433,-3.61748 1.37794,-1.12873 -0.35567,-1.31198 2.02756,-2.93911 1.56967,-0.75185 -0.12249,-0.92853 -0.1597,-0.9318 1.59416,-3.08609 1.3002,-0.68262 0.0841,-0.49497 20.69902,-2.15129 0.10246,3.48277 0.0896,9.22947 -0.44803,17.20443 -0.0896,7.79577 1.52332,10.39435 z"
     sodipodi:nodetypes="ccccccccccccccccccccccccccccccccccccccccccccccccccc"
     inkscape:connector-curvature="0" />
  <path
     style="opacity:1;fill:#df9a81;fill-opacity:1;stroke:#ffffff;stroke-width:0.41571528;stroke-miterlimit:4;stroke-dasharray:none;stroke-opacity:1"
     id="IA"
     d="m 315.49551,375.21321 0.14654,1.54435 1.23257,0.31996 0.52876,0.67919 0.27715,1.0284 2.10232,1.86166 0.38016,1.32558 -0.37377,1.89813 -0.87705,1.79145 -0.44306,1.51974 -1.20434,0.888 -0.95088,0.31727 -3.09238,1.03108 -0.77127,2.13328 0.40388,0.76034 1.02017,0.93264 -0.15682,2.23726 -0.97729,0.85242 -0.42759,0.91077 0.0705,1.53887 -1.04557,0.25345 -0.90096,0.61243 -0.15453,0.74975 0.15453,1.17227 -0.85971,0.61862 -1.36939,-1.73673 -0.69982,-1.35793 -36.43652,1.39395 -0.50884,0.0917 -1.13762,-2.50314 -0.12673,-3.67496 -0.88705,-2.28101 -0.38016,-2.91462 -1.26724,-2.02755 -0.50688,-2.66118 -1.52068,-4.18184 -0.6336,-2.97799 -0.76035,-1.20386 -0.88706,-1.52067 1.08308,-2.68486 0.76033,-3.16807 -1.52068,-1.14051 -0.25344,-1.52067 0.5069,-1.39395 h 0.95041 l 45.81405,-0.70365 0.46242,2.31865 1.24835,0.86522 0.14229,0.7888 -1.12494,1.87865 0.10554,1.77678 1.39396,2.10529 1.40056,0.71704 1.7068,0.27884 z"
     sodipodi:nodetypes="ccccccccccccccccccccccccccccccccccccccccccccccccccccccc"
     inkscape:connector-curvature="0" />
  <path
     style="opacity:1;fill:#efcdc0;fill-opacity:1;stroke:#ffffff;stroke-width:0.41571528;stroke-miterlimit:4;stroke-dasharray:none;stroke-opacity:1"
     id="MN"
     d="m 263.41816,335.99191 -0.25344,-4.68875 -1.01378,-4.05511 -1.01378,-7.47662 -0.25345,-5.44908 -1.01378,-1.90084 -0.88706,-2.78789 v -5.70253 l 0.38016,-2.15428 -1.00932,-3.02178 16.70201,0.0195 0.17922,-4.56992 0.35842,-0.0896 1.25449,0.26882 1.07528,0.44804 0.44803,3.0466 0.80645,3.40505 0.89607,0.89606 h 2.68819 l 0.17921,0.80646 3.49465,0.17921 v 1.16489 h 2.68819 l 0.1792,-0.71686 0.62724,-0.62724 1.25449,-0.35842 0.71686,0.53763 h 1.61291 l 2.15055,1.4337 2.95702,1.3441 1.3441,0.26881 0.26881,-0.53763 0.80646,-0.26882 0.26881,1.61292 1.4337,0.71685 0.26882,-0.26883 0.71686,0.0896 v 1.16488 l 1.43369,0.53764 h 1.70252 l 0.89607,-0.44803 1.79212,-1.79212 1.4337,-0.26883 0.44804,0.98568 0.26881,0.71685 h 0.53764 l 0.53763,-0.44804 4.92835,-0.17921 0.98567,1.70253 h 0.35842 l 0.39556,-0.60102 2.46098,-0.20545 -0.33928,1.26348 -2.18318,1.01829 -5.12481,2.25103 -2.64658,1.1124 -1.70252,1.4337 -1.34409,1.97134 -1.25449,2.15055 -0.98568,0.44803 -2.50897,2.7778 -0.71686,0.0896 -2.39883,1.52824 -1.36514,1.77654 -0.12671,1.76896 0.0523,4.45832 -0.76272,0.93605 -2.81664,2.0841 -1.23611,3.31597 1.59179,1.23813 0.37685,1.78866 -1.02834,1.79531 0.0947,2.07747 0.20445,3.73058 1.67852,1.66396 h 1.84523 l 1.04822,1.73636 1.87302,0.27896 2.13909,3.14362 3.92839,2.28185 1.18792,1.59365 0.37201,3.56934 -45.01448,0.63454 -0.18731,-19.77521 -0.25344,-1.64739 -2.28101,-1.90085 -0.63362,-1.01378 v -0.88706 l 1.1405,-0.88705 0.76034,-0.76034 z"
     sodipodi:nodetypes="ccccccccccccccccccccccccccccccccccccccccccccccccccccccccccccccccccccccccccccccccccccccccccc"
     inkscape:connector-curvature="0" />
  <path
     style="opacity:1;fill:#cf6842;fill-opacity:1;stroke:#ffffff;stroke-width:0.41571528;stroke-miterlimit:4;stroke-dasharray:none;stroke-opacity:1"
     id="OK"
     d="m 210.81927,442.41339 -9.24782,-0.70577 -0.4879,6.07079 11.3437,0.64124 17.76797,0.72257 -1.29404,13.53495 -0.25344,9.88435 0.12672,0.88706 2.40774,2.02756 1.14049,0.63361 0.38017,-0.12672 0.38017,-1.14051 0.76034,1.01379 h 1.1405 v -0.76034 l 1.52067,0.76034 -0.25344,2.15428 2.28101,0.12672 1.39394,0.63362 2.28101,0.38016 1.39395,1.01379 1.26723,-1.1405 1.90083,0.38016 1.39395,1.90083 h 0.50688 v 1.26724 l 1.26723,0.38016 1.26722,-1.26722 1.01379,0.38016 h 1.39395 l 0.50689,1.39396 3.49261,1.15234 0.76033,-0.38016 1.01379,-2.28102 h 0.6336 l 0.63362,1.14051 2.281,0.38017 2.02756,0.76034 1.6474,0.50689 1.01378,-0.50689 0.38016,-1.39395 h 2.40773 l 1.1405,0.50688 1.52068,-1.1405 h 0.63361 l 0.38016,0.88706 h 2.28101 l 0.88706,-1.14051 1.01379,0.25345 1.14049,1.39396 1.77412,1.01377 1.77412,0.50689 1.07592,0.62021 -0.21567,-20.6289 -0.76035,-6.08273 -0.0889,-4.91783 -0.79812,-3.62378 -0.43134,-3.97959 -0.0378,-2.11528 -6.72729,0.17668 -25.72449,-0.25344 -24.96448,-1.14052 z"
     sodipodi:nodetypes="ccccccccccccccccccccccccccccccccccccccccccccccccccccccccccccccc"
     inkscape:connector-curvature="0" />
  <path
     style="opacity:1;fill:#cf6842;fill-opacity:1;stroke:#ffffff;stroke-width:0.41571528;stroke-miterlimit:4;stroke-dasharray:none;stroke-opacity:1"
     id="TX"
     d="m 200.35494,447.81887 12.57721,0.60193 17.23427,0.6336 -1.29403,13.00125 -0.1645,10.06226 0.0378,1.15391 2.40772,2.11651 1.10117,0.80214 0.65639,-0.31023 0.20696,-1.00754 0.63206,0.99973 1.17046,0.0243 -0.002,-0.8021 0.92562,0.53615 0.63117,0.22663 -0.19914,2.19921 2.26603,0.0518 1.62147,0.66358 2.19206,0.29121 1.31997,1.15236 1.17736,-1.1508 2.06469,0.34084 1.23101,1.78754 0.59584,0.1779 -0.0889,1.08932 1.22697,0.43916 1.29158,-1.13894 1.1823,0.34083 1.23572,0.0197 0.51718,1.34993 3.50758,1.17202 0.88301,-0.4251 0.8256,-2.31566 h 0.18885 l 0.50246,0.0453 0.68124,1.14661 2.17829,0.36876 1.84966,0.62239 1.89877,0.66292 1.02021,-0.54043 0.39563,-1.39395 2.46835,0.0245 1.00258,0.51593 1.55158,-1.16762 0.61173,0.0245 0.47173,0.88967 h 2.24748 l 0.84188,-1.12444 1.03507,0.22572 1.07866,1.33212 1.9514,1.13304 1.58457,0.44887 0.83898,0.44334 1.35618,1.10709 1.68671,-0.73597 1.49164,0.63126 0.31251,3.38444 -0.022,5.3778 0.38016,5.28456 0.38921,1.99827 1.4829,2.44988 0.49785,2.74412 2.33684,3.06966 0.10866,1.74319 0.4137,0.43559 -0.40467,4.64496 -1.59197,2.77503 0.84971,1.19331 -0.34925,1.29597 -0.37113,4.10412 -0.83382,1.85021 0.16345,1.94131 -3.13997,0.87864 -5.466,2.50898 -0.53763,1.07528 -1.4337,1.07527 -1.16487,0.80646 -0.71686,0.44802 -3.13622,2.95702 -1.5233,1.16488 -2.95702,1.79212 -3.13622,1.3441 -3.49464,1.88173 -0.98567,0.80646 -3.22583,1.97134 -1.88173,0.35842 -2.15055,3.04662 -2.24016,0.17921 -0.53764,1.07527 1.25449,1.07528 -0.80646,3.04661 -0.71684,2.50898 -0.62725,2.15055 -0.44802,2.50898 0.44802,1.3441 0.98568,3.85308 0.53763,3.40503 0.98567,1.5233 -0.53764,0.80646 -1.70252,1.07527 -3.13622,-2.15055 -3.04662,-0.62724 -0.71685,0.26883 -1.79212,-0.35843 -2.32977,-1.70253 -2.86739,-0.62723 -4.21151,-1.88174 -1.16487,-2.15055 -0.71685,-3.58425 -1.79213,-1.07528 -0.35842,-1.25449 0.35842,-0.35843 0.17922,-1.88173 -0.71686,-0.35843 -0.35842,-0.53764 0.71684,-2.41936 -0.89606,-1.25449 -1.79212,-0.71685 -1.88174,-2.41937 -1.97134,-3.67385 -2.32976,-1.43371 0.0896,-1.07528 -2.95701,-6.81008 -0.44804,-2.32976 -0.98566,-1.07527 -0.0896,-0.80646 -3.31543,-2.95701 -1.4337,-1.70252 v -0.62724 l -1.4337,-1.16488 -3.76346,-0.62726 -4.12189,-0.35841 -1.70253,-1.25449 -2.50897,0.98567 -1.97134,0.80646 -1.25449,1.79212 -0.53763,2.06095 -2.41938,3.40504 -1.34409,1.34409 -1.4337,-0.53764 -0.98567,-0.62724 -1.07528,-0.35843 -2.15055,-1.25448 v -0.35843 l -0.98567,-1.07528 -2.8674,-1.16488 -4.1219,-4.3011 -1.25449,-2.59858 v -4.48033 l -1.79212,-3.58425 -0.26881,-1.5233 -0.89607,-0.53764 -0.62725,-1.16488 -2.77778,-1.16488 -0.71685,-0.89606 -3.94269,-4.39071 -0.71684,-1.79213 -2.59859,-1.25449 -0.80646,-2.41939 -1.43372,-1.61291 -1.07526,-0.2688 -0.35986,-2.59275 4.43533,0.38017 16.09372,1.52067 16.09376,0.88705 1.23802,-10.78743 2.15427,-30.79343 0.88707,-10.3914 0.76035,0.0158 m 54.89068,127.29908 -0.31362,-3.94269 -1.52332,-3.9875 -0.31363,-3.89788 0.85127,-4.56993 1.83694,-3.80828 1.92654,-3.00183 1.74733,-1.97135 0.35843,0.13442 -2.6434,3.67386 -2.41938,3.62908 -1.12009,3.67386 -0.1792,2.86742 0.49283,3.40505 1.43371,3.98749 0.26881,2.86741 0.0896,0.80647 z"
     sodipodi:nodetypes="ccccccccccccccccccccccccccccccccccccccccccccccccccccccccccccccccccccccccccccccccccccccccccccccccccccccccccccccccccccccccccccccccccccccccccccccccccccccccccccccccccccccccccccccccccccccccccc"
     inkscape:connector-curvature="0" />
  <path
     style="opacity:1;fill:#df9a81;fill-opacity:1;stroke:#ffffff;stroke-width:0.41571528;stroke-miterlimit:4;stroke-dasharray:none;stroke-opacity:1"
     id="NM"
     d="m 159.71923,499.61121 -0.4298,-2.63181 4.79113,0.29122 16.72381,1.63288 15.1144,0.93669 1.22789,-10.36931 2.13809,-30.97133 0.96317,-10.7472 0.87117,0.0713 0.45752,-6.18773 -57.64833,-5.89536 -9.69856,66.75545 8.56965,1.10256 0.71685,-5.55559 z"
     sodipodi:nodetypes="ccccccccccccccc"
     inkscape:connector-curvature="0" />
  <path
     style="opacity:1;fill:#df9a81;fill-opacity:1;stroke:#ffffff;stroke-width:0.41571528;stroke-miterlimit:4;stroke-dasharray:none;stroke-opacity:1"
     id="KS"
     d="m 281.51164,444.386 -6.99414,0.11332 -25.54659,-0.25344 -24.69763,-1.14052 -13.65195,-0.69697 2.15827,-35.80414 12.24059,0.37422 22.33174,0.46638 24.5556,0.54741 h 2.82445 l 1.21078,1.19859 1.11836,-0.0119 0.90919,0.5612 -0.0346,1.66797 -1.01377,0.95636 -0.18416,1.23726 1.02159,1.88586 1.63646,1.77099 1.29002,0.89487 0.721,6.23064 z"
     sodipodi:nodetypes="ccccccccccccccccccccc"
     inkscape:connector-curvature="0" />
  <path
     style="opacity:1;fill:#df9a81;fill-opacity:1;stroke:#ffffff;stroke-width:0.41571528;stroke-miterlimit:4;stroke-dasharray:none;stroke-opacity:1"
     id="NE"
     d="m 269.43776,398.00343 1.79069,3.89104 -0.0713,1.27626 1.9174,3.04518 1.50726,1.74731 h -2.79885 l -24.10182,-0.5203 -22.60763,-0.49348 -12.33412,-0.43449 0.59462,-11.82175 -17.91358,-1.61866 2.40773,-24.3941 8.61713,0.57026 11.15159,0.63361 9.88436,0.63361 13.17914,0.63361 5.95597,-0.25344 1.1405,1.26723 2.66117,1.64739 0.63362,0.50689 2.40772,-0.76033 2.15428,-0.25345 1.52068,-0.12672 1.01378,0.76034 2.24899,0.88705 1.64738,0.88707 0.25345,0.88705 0.50688,1.14049 h 1.01379 l 0.44231,0.0256 0.49565,2.59507 1.61867,4.69365 0.31736,2.0823 1.39873,2.09202 0.31571,2.83471 0.89087,2.35037 z"
     sodipodi:nodetypes="ccccccccccccccccccccccccccccccccccccc"
     inkscape:connector-curvature="0" />
  <path
     style="opacity:1;fill:#df9a81;fill-opacity:1;stroke:#ffffff;stroke-width:0.41571528;stroke-miterlimit:4;stroke-dasharray:none;stroke-opacity:1"
     id="SD"
     d="m 264.08833,377.67444 -0.0263,-0.32197 -1.60505,-2.68577 1.0311,-2.61186 0.8274,-3.26283 -1.54195,-1.15275 -0.21349,-1.52067 0.43922,-1.41585 1.76735,0.009 -0.0682,-2.77484 -0.18474,-16.72519 -0.34241,-2.08833 -2.25723,-1.84629 -0.54466,-0.92952 -0.0346,-0.89174 1.12083,-0.84773 0.84929,-0.92327 0.13578,-1.47261 -32.29115,-0.88706 -30.37449,-1.91179 -2.95174,35.30321 8.0872,0.50097 11.05795,0.66825 9.83474,0.51471 13.17915,0.72255 6.64186,-0.23537 1.08989,1.24448 2.87932,1.80329 0.42342,0.4006 2.51726,-0.80527 3.62533,-0.34084 0.92861,0.74068 2.3305,0.88471 1.63241,0.90673 0.22115,0.82245 0.57618,1.24209 z"
     sodipodi:nodetypes="ccccccccccccccccccccccccccccccccccccc"
     inkscape:connector-curvature="0" />
  <path
     style="opacity:1;fill:#ffffff;fill-opacity:1;stroke:#ffffff;stroke-width:0.41571528;stroke-miterlimit:4;stroke-dasharray:none;stroke-opacity:1"
     id="ND"
     d="m 263.45556,336.04404 -0.34084,-4.67467 -0.92951,-3.77797 -1.04842,-7.21917 -0.25345,-6.08995 -0.96415,-1.70563 -0.97368,-2.87918 0.0173,-5.78913 0.34552,-2.11963 -1.01662,-3.03072 -15.87602,-0.31263 -10.30472,-0.35843 -14.69544,-0.71685 -12.71886,-1.18277 -3.87626,37.23524 30.44823,1.85335 z"
     sodipodi:nodetypes="ccccccccccccccccc"
     inkscape:connector-curvature="0" />
  <path
     style="opacity:1;fill:#df9a81;fill-opacity:1;stroke:#ffffff;stroke-width:0.41571528;stroke-miterlimit:4;stroke-dasharray:none;stroke-opacity:1"
     id="WY"
     d="m 199.75213,344.00217 -59.16604,-7.45907 -7.80629,49.03114 62.7811,7.53026 z"
     sodipodi:nodetypes="ccccc"
     inkscape:connector-curvature="0" />
  <path
     style="opacity:1;fill:#df9a81;fill-opacity:1;stroke:#ffffff;stroke-width:0.41571528;stroke-miterlimit:4;stroke-dasharray:none;stroke-opacity:1"
     id="MT"
     d="m 204.64805,296.16347 -17.00238,-1.55635 -16.21873,-1.97134 -16.21874,-2.24016 -17.92127,-2.95701 -10.21512,-1.88172 -18.13829,-3.84273 -2.48267,11.83266 1.90085,4.18184 -0.76034,2.53445 1.01377,2.53446 1.77413,0.76033 2.56126,5.96937 1.49386,1.7607 0.25344,0.63362 1.90084,0.63361 0.25345,1.1405 -3.9284,9.75765 v 1.39394 l 1.39394,1.77411 h 0.50689 l 2.66117,-1.64739 0.38018,-0.63361 0.88705,0.38017 -0.12672,2.91462 1.52067,6.96974 1.6474,1.39394 0.50688,0.38017 1.01379,1.26722 -0.25345,1.90085 0.38017,1.90083 0.63361,0.5069 1.26723,-1.26723 h 1.52067 l 1.77412,0.88706 1.39395,-0.50689 h 2.28101 l 2.02755,0.88706 1.52068,-0.25345 0.25343,-1.6474 1.64739,-0.38016 0.76034,0.76033 0.25345,1.77412 0.79034,0.46263 1.04591,-6.11642 59.16774,7.44348 z"
     sodipodi:nodetypes="ccccccccccccccccccccccccccccccccccccccccccccccc"
     inkscape:connector-curvature="0" />
  <path
     style="opacity:1;fill:#df9a81;fill-opacity:1;stroke:#ffffff;stroke-width:0.41571528;stroke-miterlimit:4;stroke-dasharray:none;stroke-opacity:1"
     id="CO"
     d="m 210.64704,442.49272 2.71782,-47.84882 -62.84982,-7.00837 -6.76996,48.74354 z"
     sodipodi:nodetypes="ccccc"
     inkscape:connector-curvature="0" />
  <path
     style="opacity:1;fill:#df9a81;fill-opacity:1;stroke:#ffffff;stroke-width:0.41571528;stroke-miterlimit:4;stroke-dasharray:none;stroke-opacity:1"
     id="ID"
     d="m 82.299883,362.40899 4.861577,-19.52239 0.760341,-2.34437 1.39394,-3.29479 -0.696967,-1.26722 -1.393955,0.0634 -0.443523,-0.57025 0.253442,-0.63362 0.190081,-1.71075 2.471092,-3.04134 1.013776,-0.25345 0.633614,-0.63361 0.31681,-1.77412 0.506884,-0.38016 2.154289,-3.23143 2.154282,-2.40772 0.126721,-2.09093 -1.900839,-1.45731 -0.85113,-2.4394 7.552102,-35.10948 7.49263,1.40129 -2.44334,11.85234 1.97345,4.14902 -0.87639,2.58344 1.09187,2.57258 1.73948,0.69574 2.12587,5.29709 1.94704,2.45946 0.28116,0.63362 1.85185,0.63361 0.20444,1.16238 -3.86394,9.63135 -0.0916,1.42225 1.45839,1.84119 0.50168,-0.0271 2.72226,-1.67706 0.37549,-0.60692 0.86597,0.3652 -0.15434,2.96749 1.51833,6.97443 2.17161,1.76149 0.93186,1.20027 -0.39722,2.26364 0.591,1.55611 0.58845,0.60488 1.37424,-1.30337 1.57869,0.0271 1.6181,0.74008 1.54093,-0.37798 2.10311,-0.0889 2.20545,0.88707 1.52068,-0.16449 0.27534,-1.68354 1.62549,-0.42394 0.6985,0.84025 0.2444,1.63235 0.78949,0.67247 -4.64825,29.71458 c 0,0 -48.758406,-9.25692 -52.634756,-10.09043 z"
     sodipodi:nodetypes="ccccccccccccccccccccccccccccccccccccccccccccccccccccccccccc"
     inkscape:connector-curvature="0" />
  <path
     style="opacity:1;fill:#df9a81;fill-opacity:1;stroke:#ffffff;stroke-width:0.41571528;stroke-miterlimit:4;stroke-dasharray:none;stroke-opacity:1"
     id="UT"
     d="m 143.83659,436.47345 -46.421013,-6.58064 11.411453,-62.3802 25.92971,4.84731 -0.823,5.89231 -1.2813,7.30143 4.3277,0.51459 9.09392,1.00036 4.55124,0.47428 z"
     sodipodi:nodetypes="cccccccccc"
     inkscape:connector-curvature="0" />
  <path
     style="opacity:1;fill:#cf6842;fill-opacity:1;stroke:#ffffff;stroke-width:0.41571528;stroke-miterlimit:4;stroke-dasharray:none;stroke-opacity:1"
     id="AZ"
     d="m 80.322404,476.67256 -1.456119,1.19634 -0.179213,0.80647 0.268819,0.53763 10.48393,5.91402 6.720476,4.21148 8.154173,4.74914 9.31907,5.55559 6.81007,1.3441 13.83011,1.4993 9.56456,-66.0306 -46.413576,-6.60558 -1.714072,9.09722 -0.890351,0.009 -0.950417,1.45731 -1.393946,-0.0634 -0.696974,-1.52066 -1.520668,-0.19008 -0.5069,-0.63362 h -0.506885 l -0.506891,0.31681 -1.077145,0.57025 -0.06339,3.86504 -0.126729,0.95042 -0.316801,6.96973 -0.823696,1.20386 -0.31681,1.83748 1.520668,2.72455 0.696974,3.23142 0.443539,0.57025 0.570245,0.31681 -0.06339,1.26722 -0.887055,0.76033 -1.900838,0.95042 -1.077145,1.07715 -0.823695,2.02755 -0.31681,2.72453 -1.584029,1.52068 -1.140497,0.38017 0.07525,0.45999 -0.253449,0.95042 0.253449,0.44353 2.027561,0.31679 -0.316811,1.52068 -0.823694,1.20386 z"
     sodipodi:nodetypes="cccccccccccccccccccccccccccccccccccccccccccccc"
     inkscape:connector-curvature="0" />
  <path
     style="opacity:1;fill:#df9a81;fill-opacity:1;stroke:#ffffff;stroke-width:0.41571528;stroke-miterlimit:4;stroke-dasharray:none;stroke-opacity:1"
     id="NV"
     d="m 108.85794,367.44832 -13.102736,71.40478 -1.015586,0.19353 -0.871761,1.33371 -1.315292,0.006 -0.815878,-1.52067 -1.451387,-0.20975 -0.427312,-0.61395 -0.575256,-0.03 -1.540009,0.91142 -0.171973,3.76109 -0.200705,3.20221 -0.193204,4.76289 -0.802117,1.15799 -1.351856,-0.59533 -38.290087,-57.75735 10.525421,-37.46144 z"
     sodipodi:nodetypes="cccccccccccccccccc"
     inkscape:connector-curvature="0" />
  <path
     style="opacity:1;fill:#cf6842;fill-opacity:1;stroke:#ffffff;stroke-width:0.41571528;stroke-miterlimit:4;stroke-dasharray:none;stroke-opacity:1"
     id="OR"
     d="m 82.434587,361.88107 4.905279,-19.29003 0.582441,-2.34437 1.304993,-3.11688 -0.341172,-0.64457 -1.393955,-0.0256 -0.710371,-0.92604 0.253442,-0.81152 0.279036,-1.79971 2.471092,-3.04134 1.013784,-0.60925 0.633605,-0.6336 0.823695,-1.9764 2.243236,-3.14247 1.97638,-2.14087 0.126721,-1.91302 -1.811884,-1.36836 -0.988523,-2.57336 -7.019367,-2.00206 -8.363684,-1.9642 -8.553768,0.0634 -0.253444,-0.76033 -3.041345,1.14051 -2.47109,-0.31681 -1.330587,-0.88706 -0.696972,0.38017 -2.59781,-0.12673 -0.95042,-0.76033 -2.914618,-1.14051 -0.44353,0.0634 -2.407729,-0.8237 -1.077142,1.01378 -3.421509,-0.19008 -3.294784,-2.281 0.380167,-0.44354 0.126721,-4.30857 -1.267225,-2.15428 -2.281007,-0.3168 -0.380166,-1.39395 -1.304754,-0.25861 -3.214047,1.14115 -1.254488,3.58426 -1.792126,5.55559 -1.792127,3.58426 -2.777795,7.79574 -3.584252,7.52694 -4.480315,6.98929 -1.075276,1.61291 -0.448032,4.74913 0.214007,6.69591 z"
     sodipodi:nodetypes="ccccccccccccccccccccccccccccccccccccccccccccccccccc"
     inkscape:connector-curvature="0" />
  <path
     style="opacity:1;fill:#df9a81;fill-opacity:1;stroke:#ffffff;stroke-width:0.41571528;stroke-miterlimit:4;stroke-dasharray:none;stroke-opacity:1"
     id="WA"
     d="m 56.577876,268.80532 2.419368,0.80646 5.376379,1.5233 4.749132,1.07528 11.111185,3.13622 12.724098,3.13622 8.437972,1.7777 -7.556237,35.24478 -6.8981,-1.95403 -8.595892,-1.97918 -8.441399,0.0184 -0.252516,-0.74535 -3.103575,1.20796 -2.547188,-0.40837 -1.190037,-0.87802 -0.727896,0.36471 -2.624914,-0.0777 -0.941379,-0.74808 -2.917235,-1.17082 -0.407386,0.0814 -2.432833,-0.84498 -1.04943,1.00734 -3.473111,-0.16558 -3.284537,-2.28682 0.431765,-0.51701 0.06719,-4.25553 -1.264883,-2.12829 -2.281006,-0.33647 -0.37548,-1.3916 -1.261288,-0.25327 -1.97046,0.68209 -1.25449,-1.78438 0.179213,-1.61292 1.523308,-0.17921 0.896063,-2.24016 -1.433701,-0.62726 0.0896,-2.06093 2.419369,-0.35843 -1.523306,-1.52331 -0.806458,-3.94267 0.358426,-1.61292 v -4.3907 l -0.985669,-1.79213 1.254488,-5.19716 1.164881,0.26881 1.344095,1.61291 1.523308,1.43371 1.792126,1.07527 2.508976,1.16489 1.702521,0.35842 1.612913,0.80645 1.881735,0.53764 1.254488,-0.0896 v -1.3441 l 0.71685,-0.62724 1.16488,-0.71685 0.179217,0.62724 0.179212,0.98568 -1.254491,0.26881 -0.179212,1.16489 0.985668,0.80645 0.627248,1.3441 0.358424,1.07527 0.806455,-0.0896 0.0896,-0.71685 -0.537636,-0.71685 -0.268818,-1.79212 0.448031,-0.98567 -0.358424,-0.80646 v -1.25449 l 0.985671,-1.97134 -0.627247,-1.43369 -1.344097,-2.68819 0.179217,-0.44803 z m -5.241723,3.31406 1.120083,-0.0896 0.26882,0.76165 0.851263,-0.89607 h 1.299294 l 0.448031,0.85127 -0.851263,0.94087 0.358432,0.44803 -0.403232,1.12009 -0.761656,0.22401 c 0,0 -0.492838,0.0448 -0.492838,-0.13441 0,-0.17921 0.806463,-1.43371 0.806463,-1.43371 l -0.940869,-0.31362 -0.179213,0.80646 -0.403232,0.35843 -0.851264,-1.2545 z"
     sodipodi:nodetypes="cccccccccccccccccccccccccccccccccccccccccccccccccccccccccccccccccccccccccccccccccccccscccccc"
     inkscape:connector-curvature="0" />
  <path
     style="opacity:1;fill:#df9a81;fill-opacity:1;stroke:#ffffff;stroke-width:0.41571528;stroke-miterlimit:4;stroke-dasharray:none;stroke-opacity:1"
     id="CA"
     d="m 80.202251,476.43369 2.18393,-0.27084 0.823696,-1.11491 0.301831,-1.63022 -1.968562,-0.32709 -0.284997,-0.37038 0.264675,-1.12649 -0.08829,-0.32684 1.06566,-0.34343 1.686571,-1.57013 0.322351,-2.76872 0.764863,-1.88573 1.077137,-1.20074 1.950462,-0.88112 0.917013,-0.88955 0.0381,-1.1689 -0.550587,-0.32149 -0.567122,-0.59459 -0.640316,-3.24173 -1.488372,-2.67725 0.313617,-1.94278 -1.341139,-0.57054 -38.279799,-57.74473 10.477196,-37.47063 -37.1815,-8.70117 -0.835252,2.62357 -0.0896,4.12188 -2.867402,6.54126 -1.702519,1.43371 -0.179213,0.62723 -0.98567,0.44805 -0.806456,2.32976 -0.448032,1.79212 1.523308,2.32977 0.896063,2.32976 0.627244,1.97134 -0.179212,3.58424 -0.985671,1.70252 -0.358424,3.22584 -0.537638,2.06094 0.985668,2.15055 1.523308,2.50897 1.254488,2.6882 0.716851,2.24016 -0.179213,1.79212 -0.179212,0.26882 v 1.16488 l 3.13622,3.49464 -0.268818,1.3441 -0.358425,1.25449 -0.358425,1.07528 0.0896,4.56993 1.164881,2.06093 1.075276,1.4337 1.523307,0.26883 0.537638,1.52329 -0.627244,1.97134 -1.164883,0.89606 h -0.627244 l -0.448031,2.15055 0.268819,1.61292 1.792126,2.41937 0.896064,2.95701 0.806456,2.59859 0.71685,1.70252 1.881732,3.22583 0.806458,1.4337 0.268819,1.61291 0.896063,0.53764 v 1.34409 l -0.448032,1.07528 -0.985669,3.94267 -0.26882,1.07527 1.344096,1.52331 2.329763,0.26882 2.508977,0.98568 2.15055,1.16487 H 37.4431 l 1.612913,1.70252 1.433701,2.68819 0.627244,1.25449 2.150551,1.16489 2.68819,0.44802 0.806456,1.16489 0.358426,1.79212 -0.806457,0.35843 0.179213,0.53764 1.792126,0.44802 1.523307,0.0896 1.751487,-0.93501 2.150552,2.32976 0.448031,1.2545 1.433704,2.32976 0.179211,1.79213 v 5.19717 l 0.268818,0.98566 5.555592,0.80647 10.931966,1.5233 z m -48.852209,-24.23159 0.716853,0.85126 -0.08961,0.71686 -1.792132,-0.0448 -0.313624,-0.67205 -0.358427,-0.80646 z m 1.07528,0 0.67205,-0.35843 1.971345,1.16489 1.702526,0.67204 -0.492837,0.35843 -2.508985,-0.1344 -0.896066,-0.89607 z m 11.469647,10.97681 0.98567,1.29929 0.448037,0.53765 0.851262,0.31361 0.31362,-0.80645 -0.537638,-0.98568 -1.478507,-1.12008 -0.582444,0.0896 z m -0.806462,4.79396 0.985675,1.74733 0.67205,1.07528 -0.806463,0.1344 -0.71685,-0.67204 c 0,0 -0.403231,-0.80647 -0.403231,-1.03048 0,-0.22402 0,-1.2097 0,-1.2097 z"
     sodipodi:nodetypes="ccccccccccccccccccccccccccccccccccccccccccccccccccccccccccccccccccccccccccccccccccccccccccccccccccccccccccccccccccccccccccccccccscc"
     inkscape:connector-curvature="0" />
</svg>
